<svg width="16" height="16" viewBox="0 0 16 16" fill="none" xmlns="http://www.w3.org/2000/svg">
<path d="M7.36683 9.96683L6.1335 11.2002C5.8735 11.4602 5.46016 11.4602 5.1935 11.2068C5.12016 11.1335 5.04683 11.0668 4.9735 10.9935C4.28683 10.3002 3.66683 9.5735 3.1135 8.8135C2.56683 8.0535 2.12683 7.2935 1.80683 6.54016C1.4935 5.78016 1.3335 5.0535 1.3335 4.36016C1.3335 3.90683 1.4135 3.4735 1.5735 3.0735C1.7335 2.66683 1.98683 2.2935 2.34016 1.96016C2.76683 1.54016 3.2335 1.3335 3.72683 1.3335C3.9135 1.3335 4.10016 1.3735 4.26683 1.4535C4.44016 1.5335 4.5935 1.6535 4.7135 1.82683L6.26016 4.00683C6.38016 4.1735 6.46683 4.32683 6.52683 4.4735C6.58683 4.6135 6.62016 4.7535 6.62016 4.88016C6.62016 5.04016 6.5735 5.20016 6.48016 5.3535C6.3935 5.50683 6.26683 5.66683 6.10683 5.82683L5.60016 6.3535C5.52683 6.42683 5.4935 6.5135 5.4935 6.62016C5.4935 6.6735 5.50016 6.72016 5.5135 6.7735C5.5335 6.82683 5.5535 6.86683 5.56683 6.90683C5.68683 7.12683 5.8935 7.4135 6.18683 7.76016C6.48683 8.10683 6.80683 8.46016 7.1535 8.8135C7.22016 8.88016 7.2935 8.94683 7.36016 9.0135C7.62683 9.2735 7.6335 9.70016 7.36683 9.96683Z" fill="white"/>
<path d="M14.6466 12.2199C14.6466 12.4065 14.6132 12.5999 14.5466 12.7865C14.5266 12.8399 14.5066 12.8932 14.4799 12.9465C14.3666 13.1865 14.2199 13.4132 14.0266 13.6265C13.6999 13.9865 13.3399 14.2465 12.9332 14.4132C12.9266 14.4132 12.9199 14.4199 12.9132 14.4199C12.5199 14.5799 12.0932 14.6665 11.6332 14.6665C10.9532 14.6665 10.2266 14.5065 9.4599 14.1799C8.69324 13.8532 7.92657 13.4132 7.16657 12.8599C6.90657 12.6665 6.64657 12.4732 6.3999 12.2665L8.5799 10.0865C8.76657 10.2265 8.93324 10.3332 9.07324 10.4065C9.10657 10.4199 9.14657 10.4399 9.19324 10.4599C9.24657 10.4799 9.2999 10.4865 9.3599 10.4865C9.47324 10.4865 9.5599 10.4465 9.63324 10.3732L10.1399 9.8732C10.3066 9.70653 10.4666 9.57986 10.6199 9.49986C10.7732 9.40653 10.9266 9.35986 11.0932 9.35986C11.2199 9.35986 11.3532 9.38653 11.4999 9.44653C11.6466 9.50653 11.7999 9.5932 11.9666 9.70653L14.1732 11.2732C14.3466 11.3932 14.4666 11.5332 14.5399 11.6999C14.6066 11.8665 14.6466 12.0332 14.6466 12.2199Z" fill="white"/>
</svg>
