<svg width="16" height="16" viewBox="0 0 16 16" fill="none" xmlns="http://www.w3.org/2000/svg">
<path d="M13.7466 5.63329C13.0466 2.55329 10.3599 1.16663 7.99994 1.16663C7.99994 1.16663 7.99994 1.16663 7.99327 1.16663C5.63994 1.16663 2.94661 2.54663 2.24661 5.62663C1.46661 9.06663 3.57328 11.98 5.47994 13.8133C6.18661 14.4933 7.09328 14.8333 7.99994 14.8333C8.90661 14.8333 9.81328 14.4933 10.5133 13.8133C12.4199 11.98 14.5266 9.07329 13.7466 5.63329ZM7.99994 8.97329C6.83994 8.97329 5.89994 8.03329 5.89994 6.87329C5.89994 5.71329 6.83994 4.77329 7.99994 4.77329C9.15994 4.77329 10.0999 5.71329 10.0999 6.87329C10.0999 8.03329 9.15994 8.97329 7.99994 8.97329Z" fill="white"/>
</svg>
