<svg width="14" height="12" viewBox="0 0 14 12" fill="none" xmlns="http://www.w3.org/2000/svg">
<path d="M10.3335 0.333496H3.66683C1.66683 0.333496 0.333496 1.3335 0.333496 3.66683V8.3335C0.333496 10.6668 1.66683 11.6668 3.66683 11.6668H10.3335C12.3335 11.6668 13.6668 10.6668 13.6668 8.3335V3.66683C13.6668 1.3335 12.3335 0.333496 10.3335 0.333496ZM10.6468 4.3935L8.56016 6.06016C8.12016 6.4135 7.56016 6.58683 7.00016 6.58683C6.44016 6.58683 5.8735 6.4135 5.44016 6.06016L3.3535 4.3935C3.14016 4.22016 3.10683 3.90016 3.2735 3.68683C3.44683 3.4735 3.76016 3.4335 3.9735 3.60683L6.06016 5.2735C6.56683 5.68016 7.42683 5.68016 7.9335 5.2735L10.0202 3.60683C10.2335 3.4335 10.5535 3.46683 10.7202 3.68683C10.8935 3.90016 10.8602 4.22016 10.6468 4.3935Z" fill="white"/>
</svg>
