<svg width="346" height="168" viewBox="0 0 346 168" fill="none" xmlns="http://www.w3.org/2000/svg">
<g clip-path="url(#clip0_2_707)">
<rect width="346" height="200" rx="4" fill="#F5B64A"/>
<g opacity="0.08">
<mask id="mask0_2_707" style="mask-type:luminance" maskUnits="userSpaceOnUse" x="0" y="-39" width="346" height="241">
<path d="M346 -38.3438H0.480591V201.323H346V-38.3438Z" fill="white"/>
</mask>
<g mask="url(#mask0_2_707)">
<path d="M18.7835 117.44V108.122C18.7835 76.0225 18.7835 43.9247 18.7835 11.8286C18.7835 -6.28065 18.7835 -24.3867 18.7835 -42.4895C18.7835 -42.6675 18.7155 -42.8382 18.5946 -42.964C18.4736 -43.0899 18.3096 -43.1606 18.1385 -43.1606C17.9675 -43.1606 17.8034 -43.0899 17.6824 -42.964C17.5615 -42.8382 17.4935 -42.6675 17.4935 -42.4895C17.4935 -10.2304 17.4935 22.0304 17.4935 54.2927C17.4935 76.3612 17.4935 98.4281 17.4935 120.493C17.469 130.681 17.4551 140.868 17.4521 151.056V204.904C17.45 204.997 17.4664 205.089 17.5003 205.174C17.5341 205.26 17.5847 205.338 17.6487 205.402C17.7128 205.466 17.7889 205.516 17.8725 205.549C17.956 205.581 18.045 205.595 18.1339 205.589H18.2214H18.2629C18.4196 205.569 18.5633 205.489 18.6657 205.363C18.768 205.238 18.8215 205.078 18.8157 204.914C18.8065 175.756 18.8664 146.603 18.7835 117.44Z" fill="#FEF8EE"/>
<path d="M38.2576 117.44V108.122C38.2576 76.0225 38.2576 43.9247 38.2576 11.8286C38.2576 -6.28065 38.2576 -24.3867 38.2576 -42.4895C38.2576 -42.6675 38.1896 -42.8382 38.0687 -42.964C37.9477 -43.0899 37.7837 -43.1606 37.6126 -43.1606C37.4416 -43.1606 37.2775 -43.0899 37.1566 -42.964C37.0356 -42.8382 36.9677 -42.6675 36.9677 -42.4895C36.9677 -10.2304 36.9677 22.0304 36.9677 54.2927C36.9677 76.3612 36.9677 98.4281 36.9677 120.493C36.9462 130.681 36.9323 140.868 36.9262 151.056C36.9262 169.005 36.9262 186.955 36.9262 204.904C36.9241 204.997 36.9406 205.089 36.9744 205.174C37.0082 205.26 37.0588 205.338 37.1228 205.402C37.1869 205.466 37.2631 205.516 37.3466 205.549C37.4301 205.581 37.5191 205.595 37.608 205.589H37.6956H37.737C37.8937 205.569 38.0374 205.489 38.1398 205.363C38.2421 205.238 38.2957 205.078 38.2898 204.914C38.2991 175.756 38.359 146.603 38.2576 117.44Z" fill="#FEF8EE"/>
<path d="M57.7677 117.44V108.122C57.7677 76.0225 57.7677 43.9247 57.7677 11.8286C57.7677 -6.28065 57.7677 -24.3867 57.7677 -42.4895C57.7677 -42.6675 57.6998 -42.8382 57.5788 -42.964C57.4579 -43.0899 57.2938 -43.1606 57.1228 -43.1606C56.9517 -43.1606 56.7877 -43.0899 56.6667 -42.964C56.5457 -42.8382 56.4778 -42.6675 56.4778 -42.4895C56.4778 -10.2304 56.4778 22.0304 56.4778 54.2927C56.4778 76.3612 56.4778 98.4281 56.4778 120.493C56.4563 130.681 56.4425 140.868 56.4363 151.056V204.904C56.4343 204.997 56.4507 205.089 56.4845 205.174C56.5184 205.26 56.5689 205.338 56.633 205.402C56.697 205.466 56.7732 205.516 56.8567 205.549C56.9402 205.581 57.0292 205.595 57.1182 205.589H57.2057H57.2471C57.4039 205.569 57.5476 205.489 57.6499 205.363C57.7522 205.238 57.8058 205.078 57.8 204.914C57.7908 175.756 57.8507 146.603 57.7677 117.44Z" fill="#FEF8EE"/>
<path d="M77.2588 117.44V108.122C77.2588 76.0225 77.2588 43.9247 77.2588 11.8286C77.2588 -6.28065 77.2588 -24.3867 77.2588 -42.4895C77.2588 -42.6675 77.1909 -42.8382 77.0699 -42.964C76.949 -43.0899 76.7849 -43.1606 76.6138 -43.1606C76.4428 -43.1606 76.2787 -43.0899 76.1578 -42.964C76.0368 -42.8382 75.9689 -42.6675 75.9689 -42.4895C75.9689 -10.2304 75.9689 22.0304 75.9689 54.2927C75.9689 76.3612 75.9689 98.4281 75.9689 120.493C75.9443 130.681 75.9305 140.868 75.9274 151.056V204.904C75.9254 204.997 75.9418 205.089 75.9756 205.174C76.0095 205.26 76.06 205.338 76.1241 205.402C76.1881 205.466 76.2643 205.516 76.3478 205.549C76.4313 205.581 76.5203 205.595 76.6092 205.589H76.6968H76.7382C76.8949 205.569 77.0386 205.489 77.141 205.363C77.2433 205.238 77.2969 205.078 77.2911 204.914C77.2818 175.756 77.3417 146.603 77.2588 117.44Z" fill="#FEF8EE"/>
<path d="M96.7648 117.44V108.122C96.7648 76.0225 96.7648 43.9247 96.7648 11.8286C96.7648 -6.28065 96.7648 -24.3867 96.7648 -42.4895C96.7648 -42.6675 96.6968 -42.8382 96.5759 -42.964C96.4549 -43.0899 96.2909 -43.1606 96.1198 -43.1606C95.9488 -43.1606 95.7847 -43.0899 95.6638 -42.964C95.5428 -42.8382 95.4749 -42.6675 95.4749 -42.4895C95.4749 -10.2304 95.4749 22.0304 95.4749 54.2927C95.4749 76.3612 95.4749 98.4281 95.4749 120.493C95.4503 130.681 95.4365 140.868 95.4334 151.056C95.4334 169.005 95.4334 186.955 95.4334 204.904C95.4313 204.997 95.4478 205.089 95.4816 205.174C95.5154 205.26 95.566 205.338 95.63 205.402C95.6941 205.466 95.7703 205.516 95.8538 205.549C95.9373 205.581 96.0263 205.595 96.1152 205.589H96.2028H96.2442C96.4009 205.569 96.5446 205.489 96.647 205.363C96.7493 205.238 96.8029 205.078 96.7971 204.914C96.7648 175.756 96.8339 146.603 96.7648 117.44Z" fill="#FEF8EE"/>
<path d="M116.243 117.44V108.122C116.243 76.0225 116.243 43.9247 116.243 11.8286C116.243 -6.28065 116.243 -24.3867 116.243 -42.4895C116.243 -42.6675 116.175 -42.8382 116.054 -42.964C115.933 -43.0899 115.769 -43.1606 115.598 -43.1606C115.427 -43.1606 115.263 -43.0899 115.142 -42.964C115.021 -42.8382 114.953 -42.6675 114.953 -42.4895C114.953 -10.2304 114.953 22.0304 114.953 54.2927C114.953 76.3612 114.953 98.4281 114.953 120.493C114.929 130.681 114.915 140.868 114.912 151.056V204.904C114.91 204.997 114.926 205.089 114.96 205.174C114.994 205.26 115.044 205.338 115.108 205.402C115.172 205.466 115.249 205.516 115.332 205.549C115.416 205.581 115.505 205.595 115.594 205.589H115.681H115.723C115.879 205.569 116.023 205.489 116.125 205.363C116.228 205.238 116.281 205.078 116.275 204.914C116.266 175.756 116.326 146.603 116.243 117.44Z" fill="#FEF8EE"/>
<path d="M135.734 117.44V108.122C135.734 76.0225 135.734 43.9247 135.734 11.8286C135.734 -6.28065 135.734 -24.3867 135.734 -42.4895C135.734 -42.6675 135.666 -42.8382 135.545 -42.964C135.425 -43.0899 135.26 -43.1606 135.089 -43.1606C134.918 -43.1606 134.754 -43.0899 134.633 -42.964C134.512 -42.8382 134.444 -42.6675 134.444 -42.4895C134.444 -10.2304 134.444 22.0304 134.444 54.2927C134.444 76.3612 134.444 98.4281 134.444 120.493C134.42 130.681 134.406 140.868 134.403 151.056C134.403 169.005 134.403 186.955 134.403 204.904C134.401 204.997 134.417 205.089 134.451 205.174C134.485 205.26 134.536 205.338 134.6 205.402C134.664 205.466 134.74 205.516 134.823 205.549C134.907 205.581 134.996 205.595 135.085 205.589H135.172H135.214C135.371 205.569 135.514 205.489 135.617 205.363C135.719 205.238 135.772 205.078 135.767 204.914C135.757 175.756 135.817 146.603 135.734 117.44Z" fill="#FEF8EE"/>
<path d="M155.228 117.44V108.122C155.228 76.0225 155.228 43.9247 155.228 11.8286C155.228 -6.28065 155.228 -24.3867 155.228 -42.4895C155.228 -42.6675 155.16 -42.8382 155.039 -42.964C154.918 -43.0899 154.754 -43.1606 154.583 -43.1606C154.412 -43.1606 154.247 -43.0899 154.127 -42.964C154.006 -42.8382 153.938 -42.6675 153.938 -42.4895C153.938 -10.2304 153.938 22.0304 153.938 54.2927C153.938 76.3612 153.938 98.4281 153.938 120.493C153.916 130.681 153.902 140.868 153.896 151.056V204.904C153.894 204.997 153.911 205.089 153.944 205.174C153.978 205.26 154.029 205.338 154.093 205.402C154.157 205.466 154.233 205.516 154.317 205.549C154.4 205.581 154.489 205.595 154.578 205.589H154.666H154.707C154.864 205.569 155.007 205.489 155.11 205.363C155.212 205.238 155.266 205.078 155.26 204.914C155.274 175.756 155.31 146.603 155.228 117.44Z" fill="#FEF8EE"/>
<path d="M174.719 117.44V108.122C174.719 76.0225 174.719 43.9247 174.719 11.8286C174.719 -6.28065 174.719 -24.3867 174.719 -42.4895C174.719 -42.6675 174.651 -42.8382 174.53 -42.964C174.409 -43.0899 174.245 -43.1606 174.074 -43.1606C173.903 -43.1606 173.738 -43.0899 173.617 -42.964C173.497 -42.8382 173.429 -42.6675 173.429 -42.4895C173.429 -10.2304 173.429 22.0304 173.429 54.2927C173.429 76.3612 173.429 98.4281 173.429 120.493C173.404 130.681 173.39 140.868 173.387 151.056V204.904C173.385 204.997 173.401 205.089 173.435 205.174C173.469 205.26 173.52 205.338 173.584 205.402C173.648 205.466 173.724 205.516 173.808 205.549C173.891 205.581 173.98 205.595 174.069 205.589H174.156H174.198C174.355 205.569 174.498 205.489 174.601 205.363C174.703 205.238 174.757 205.078 174.751 204.914C174.742 175.756 174.801 146.603 174.719 117.44Z" fill="#FEF8EE"/>
<path d="M194.211 117.44V108.122C194.211 76.0225 194.211 43.9247 194.211 11.8286C194.211 -6.28065 194.211 -24.3867 194.211 -42.4895C194.211 -42.6675 194.143 -42.8382 194.022 -42.964C193.901 -43.0899 193.737 -43.1606 193.566 -43.1606C193.395 -43.1606 193.231 -43.0899 193.11 -42.964C192.989 -42.8382 192.921 -42.6675 192.921 -42.4895C192.921 -10.2304 192.921 22.0304 192.921 54.2927C192.921 76.3612 192.921 98.4281 192.921 120.493C192.899 130.681 192.885 140.868 192.879 151.056C192.879 169.005 192.879 186.955 192.879 204.904C192.877 204.997 192.894 205.089 192.928 205.174C192.961 205.26 193.012 205.338 193.076 205.402C193.14 205.466 193.216 205.516 193.3 205.549C193.383 205.581 193.472 205.595 193.561 205.589H193.649H193.69C193.847 205.569 193.991 205.489 194.093 205.363C194.195 205.238 194.249 205.078 194.243 204.914C194.234 175.756 194.294 146.603 194.211 117.44Z" fill="#FEF8EE"/>
<path d="M213.702 117.44V108.122C213.702 76.0225 213.702 43.9247 213.702 11.8286C213.702 -6.28065 213.702 -24.3867 213.702 -42.4895C213.702 -42.6675 213.634 -42.8382 213.513 -42.964C213.392 -43.0899 213.228 -43.1606 213.057 -43.1606C212.886 -43.1606 212.722 -43.0899 212.601 -42.964C212.48 -42.8382 212.412 -42.6675 212.412 -42.4895C212.412 -10.2304 212.412 22.0304 212.412 54.2927C212.412 76.3612 212.412 98.4281 212.412 120.493C212.387 130.681 212.374 140.868 212.371 151.056V204.904C212.368 204.997 212.385 205.089 212.419 205.174C212.453 205.26 212.503 205.338 212.567 205.402C212.631 205.466 212.707 205.516 212.791 205.549C212.874 205.581 212.963 205.595 213.052 205.589H213.14H213.181C213.338 205.569 213.482 205.489 213.584 205.363C213.686 205.238 213.74 205.078 213.734 204.914C213.725 175.756 213.78 146.603 213.702 117.44Z" fill="#FEF8EE"/>
<path d="M233.195 117.44V108.122C233.195 76.0225 233.195 43.9247 233.195 11.8286C233.195 -6.28065 233.195 -24.3867 233.195 -42.4895C233.195 -42.6675 233.127 -42.8382 233.006 -42.964C232.885 -43.0899 232.721 -43.1606 232.55 -43.1606C232.379 -43.1606 232.215 -43.0899 232.094 -42.964C231.973 -42.8382 231.905 -42.6675 231.905 -42.4895C231.905 -10.2304 231.905 22.0304 231.905 54.2927C231.905 76.3612 231.905 98.4281 231.905 120.493C231.884 130.681 231.87 140.868 231.864 151.056V204.904C231.862 204.997 231.878 205.089 231.912 205.174C231.946 205.26 231.996 205.338 232.06 205.402C232.124 205.466 232.201 205.516 232.284 205.549C232.368 205.581 232.457 205.595 232.546 205.589H232.633H232.67C232.827 205.569 232.97 205.489 233.073 205.363C233.175 205.238 233.229 205.078 233.223 204.914C233.218 175.756 233.278 146.603 233.195 117.44Z" fill="#FEF8EE"/>
<path d="M252.687 117.44V108.122C252.687 76.0225 252.687 43.9247 252.687 11.8286C252.687 -6.28064 252.687 -24.3867 252.687 -42.4895C252.687 -42.6675 252.619 -42.8382 252.498 -42.964C252.377 -43.0899 252.213 -43.1606 252.042 -43.1606C251.871 -43.1606 251.707 -43.0899 251.586 -42.964C251.465 -42.8382 251.397 -42.6675 251.397 -42.4895C251.397 -10.2303 251.397 22.0304 251.397 54.2927C251.397 76.3612 251.397 98.4281 251.397 120.493C251.373 130.681 251.359 140.868 251.356 151.056C251.356 169.005 251.356 186.955 251.356 204.904C251.354 204.995 251.37 205.085 251.403 205.17C251.435 205.254 251.484 205.331 251.546 205.395C251.608 205.459 251.682 205.509 251.764 205.543C251.845 205.576 251.932 205.592 252.019 205.59H252.107H252.148C252.305 205.569 252.449 205.489 252.551 205.363C252.653 205.238 252.707 205.078 252.701 204.914C252.71 175.756 252.77 146.603 252.687 117.44Z" fill="#FEF8EE"/>
<path d="M272.179 117.44V108.122C272.179 76.0225 272.179 43.9247 272.179 11.8286C272.179 -6.28065 272.179 -24.3867 272.179 -42.4895C272.179 -42.6675 272.111 -42.8382 271.99 -42.964C271.869 -43.0899 271.705 -43.1606 271.534 -43.1606C271.362 -43.1606 271.198 -43.0899 271.077 -42.964C270.957 -42.8382 270.889 -42.6675 270.889 -42.4895C270.889 -10.2304 270.889 22.0304 270.889 54.2927C270.889 76.3612 270.889 98.4281 270.889 120.493C270.867 130.681 270.853 140.868 270.847 151.056V204.904C270.845 204.997 270.861 205.089 270.895 205.174C270.929 205.26 270.98 205.338 271.044 205.402C271.108 205.466 271.184 205.516 271.267 205.549C271.351 205.581 271.44 205.595 271.529 205.589H271.616H271.658C271.815 205.569 271.958 205.489 272.061 205.363C272.163 205.238 272.217 205.078 272.211 204.914C272.202 175.756 272.261 146.603 272.179 117.44Z" fill="#FEF8EE"/>
<path d="M291.67 117.44V108.122C291.67 76.0225 291.67 43.9247 291.67 11.8286C291.648 -6.28065 291.638 -24.3867 291.638 -42.4895C291.638 -42.6675 291.57 -42.8382 291.449 -42.964C291.328 -43.0899 291.164 -43.1606 290.993 -43.1606C290.822 -43.1606 290.658 -43.0899 290.537 -42.964C290.416 -42.8382 290.348 -42.6675 290.348 -42.4895C290.348 -10.2304 290.348 22.0304 290.348 54.2927C290.348 76.3612 290.348 98.4281 290.348 120.493C290.323 130.681 290.309 140.868 290.306 151.056V204.904C290.304 204.997 290.321 205.089 290.355 205.174C290.388 205.26 290.439 205.338 290.503 205.402C290.567 205.466 290.643 205.516 290.727 205.549C290.81 205.581 290.899 205.595 290.988 205.589H291.076H291.117C291.274 205.569 291.418 205.489 291.52 205.363C291.622 205.238 291.676 205.078 291.67 204.914C291.693 175.756 291.753 146.603 291.67 117.44Z" fill="#FEF8EE"/>
<path d="M311.162 117.44V108.122C311.162 76.0225 311.162 43.9247 311.162 11.8286C311.162 -6.28065 311.162 -24.3867 311.162 -42.4895C311.162 -42.6675 311.094 -42.8382 310.973 -42.964C310.852 -43.0899 310.688 -43.1606 310.517 -43.1606C310.346 -43.1606 310.182 -43.0899 310.061 -42.964C309.94 -42.8382 309.872 -42.6675 309.872 -42.4895C309.872 -10.2304 309.872 22.0304 309.872 54.2927C309.872 76.3612 309.872 98.4281 309.872 120.493C309.85 130.681 309.836 140.868 309.83 151.056C309.83 169.005 309.83 186.955 309.83 204.904C309.828 204.997 309.845 205.089 309.878 205.174C309.912 205.26 309.963 205.338 310.027 205.402C310.091 205.466 310.167 205.516 310.251 205.549C310.334 205.581 310.423 205.595 310.512 205.589H310.6H310.641C310.798 205.569 310.941 205.489 311.044 205.363C311.146 205.238 311.2 205.078 311.194 204.914C311.185 175.756 311.245 146.603 311.162 117.44Z" fill="#FEF8EE"/>
<path d="M330.655 117.44V108.122C330.655 76.0225 330.655 43.9247 330.655 11.8286C330.655 -6.28065 330.655 -24.3867 330.655 -42.4895C330.655 -42.6675 330.587 -42.8382 330.466 -42.964C330.345 -43.0899 330.181 -43.1606 330.01 -43.1606C329.839 -43.1606 329.675 -43.0899 329.554 -42.964C329.433 -42.8382 329.365 -42.6675 329.365 -42.4895C329.365 -10.2304 329.365 22.0304 329.365 54.2927C329.365 76.3612 329.365 98.4281 329.365 120.493C329.34 130.681 329.326 140.868 329.323 151.056V204.904C329.321 204.997 329.338 205.089 329.372 205.174C329.405 205.26 329.456 205.338 329.52 205.402C329.584 205.466 329.66 205.516 329.744 205.549C329.827 205.581 329.916 205.595 330.005 205.589H330.093H330.134C330.291 205.569 330.435 205.489 330.537 205.363C330.639 205.238 330.693 205.078 330.687 204.914C330.678 175.756 330.738 146.603 330.655 117.44Z" fill="#FEF8EE"/>
<path d="M124.038 16.181H137.223C182.583 16.181 227.942 16.181 273.302 16.181H350.063C351.284 16.181 351.284 14.8388 350.063 14.8388H213.288C182.102 14.8388 150.919 14.8388 119.74 14.8388C105.344 14.8101 90.9462 14.7941 76.545 14.7909H0.447769C-0.197201 14.7909 -0.519686 15.1456 -0.519686 15.5003C-0.52156 15.5307 -0.52156 15.5611 -0.519686 15.5914C-0.521921 15.6057 -0.521921 15.6203 -0.519686 15.6345C-0.450582 15.9365 -0.132704 16.2097 0.429341 16.2097C41.6368 16.2097 82.8396 16.2001 124.038 16.181Z" fill="#FEF8EE"/>
<path d="M124.038 35.3015H137.223C182.583 35.3015 227.942 35.3015 273.302 35.3015H350.063C351.284 35.3015 351.284 33.9593 350.063 33.9593H213.288H119.74C105.344 33.9338 90.9462 33.9194 76.545 33.9162H0.447769C-0.197201 33.9162 -0.519686 34.2709 -0.519686 34.6256C-0.521891 34.6543 -0.521891 34.6832 -0.519686 34.7119C-0.521921 34.7262 -0.521921 34.7407 -0.519686 34.755C-0.450582 35.0618 -0.132704 35.335 0.429341 35.335C41.6368 35.3318 82.8396 35.3206 124.038 35.3015Z" fill="#FEF8EE"/>
<path d="M124.038 54.4268H137.223C182.583 54.4268 227.942 54.4268 273.302 54.4268H350.063C351.284 54.4268 351.284 53.0846 350.063 53.0846H213.288H119.74C105.344 53.0623 90.9462 53.0479 76.545 53.0415H0.447769C-0.197201 53.0415 -0.519686 53.3962 -0.519686 53.7509C-0.521891 53.7796 -0.521891 53.8085 -0.519686 53.8372C-0.521921 53.8515 -0.521921 53.866 -0.519686 53.8803C-0.450582 54.1871 -0.132704 54.4555 0.429341 54.4555C41.6368 54.4555 82.8396 54.4459 124.038 54.4268Z" fill="#FEF8EE"/>
<path d="M124.038 73.5528H137.223C182.583 73.5528 227.942 73.5528 273.302 73.5528H350.063C351.284 73.5528 351.284 72.2154 350.063 72.2154H213.288C182.102 72.2154 150.919 72.2154 119.74 72.2154C105.344 72.193 90.9462 72.1787 76.545 72.1723H0.447769C-0.197201 72.1723 -0.519686 72.527 -0.519686 72.8817C-0.521891 72.9104 -0.521891 72.9393 -0.519686 72.968C-0.521921 72.9823 -0.521921 72.9968 -0.519686 73.0111C-0.450582 73.3179 -0.132704 73.5863 0.429341 73.5863C41.6368 73.5831 82.8396 73.5719 124.038 73.5528Z" fill="#FEF8EE"/>
<path d="M124.038 92.6773H137.223C182.583 92.6773 227.943 92.6773 273.302 92.6773H350.063C351.284 92.6773 351.284 91.3352 350.063 91.3352H213.288C182.102 91.3352 150.919 91.3352 119.74 91.3352C105.345 91.3064 90.9465 91.2921 76.5452 91.2921H0.448021C-0.196949 91.2921 -0.519434 91.6468 -0.519434 91.9967C-0.522005 92.027 -0.522005 92.0575 -0.519434 92.0877C-0.521669 92.102 -0.521669 92.1166 -0.519434 92.1309C-0.45033 92.4329 -0.132452 92.7061 0.429593 92.7061C41.637 92.7061 82.8398 92.6965 124.038 92.6773Z" fill="#FEF8EE"/>
<path d="M124.038 111.803H137.223C182.583 111.803 227.942 111.803 273.302 111.803H350.063C351.284 111.803 351.284 110.46 350.063 110.46H213.288C182.102 110.46 150.919 110.46 119.74 110.46C105.344 110.432 90.9462 110.417 76.545 110.417H0.447769C-0.197201 110.417 -0.519686 110.767 -0.519686 111.122C-0.52156 111.152 -0.52156 111.183 -0.519686 111.213C-0.521921 111.227 -0.521921 111.242 -0.519686 111.256C-0.450582 111.558 -0.132704 111.831 0.429341 111.831C41.6368 111.831 82.8396 111.822 124.038 111.803Z" fill="#FEF8EE"/>
<path d="M124.038 130.924H137.223C182.583 130.924 227.942 130.924 273.302 130.924H350.063C351.284 130.924 351.284 129.581 350.063 129.581H213.288H119.74C105.344 129.559 90.9462 129.545 76.545 129.538H0.447769C-0.197201 129.538 -0.519686 129.893 -0.519686 130.248C-0.521891 130.276 -0.521891 130.305 -0.519686 130.334C-0.521921 130.348 -0.521921 130.363 -0.519686 130.377C-0.450582 130.684 -0.132704 130.957 0.429341 130.957C41.6368 130.957 82.8396 130.946 124.038 130.924Z" fill="#FEF8EE"/>
<path d="M124.038 150.035H137.223C182.583 150.035 227.942 150.035 273.302 150.035H350.063C351.284 150.035 351.284 148.692 350.063 148.692H213.288H119.74C105.344 148.67 90.9462 148.656 76.545 148.649H0.447769C-0.197201 148.649 -0.519686 149.004 -0.519686 149.359C-0.521891 149.387 -0.521891 149.416 -0.519686 149.445C-0.521921 149.459 -0.521921 149.474 -0.519686 149.488C-0.450582 149.795 -0.132704 150.063 0.429341 150.063C41.6368 150.073 82.8396 150.063 124.038 150.035Z" fill="#FEF8EE"/>
<path d="M124.038 169.175H137.223C182.583 169.175 227.942 169.175 273.302 169.175H350.063C351.284 169.175 351.284 167.837 350.063 167.837H213.288C182.102 167.837 150.919 167.837 119.74 167.837C105.344 167.793 90.9462 167.77 76.545 167.77H0.447769C-0.197201 167.77 -0.519686 168.125 -0.519686 168.48C-0.521891 168.508 -0.521891 168.537 -0.519686 168.566C-0.521921 168.58 -0.521921 168.595 -0.519686 168.609C-0.450582 168.916 -0.132704 169.184 0.429341 169.184C41.6368 169.2 82.8396 169.197 124.038 169.175Z" fill="#FEF8EE"/>
</g>
</g>
<path d="M250.843 171.507C250.799 171.436 250.776 171.353 250.776 171.268C250.776 171.183 250.799 171.1 250.843 171.029C250.908 170.879 250.962 170.723 251.004 170.564L251.231 169.584C251.368 168.964 251.505 168.276 251.612 167.618C251.857 166.303 252.065 164.989 252.28 163.668L253.526 155.748C254.372 150.47 255.314 145.205 256.56 139.995C256.709 139.344 256.882 138.699 257.043 138.048C257.199 137.375 257.398 136.714 257.639 136.069C257.783 135.707 258.008 135.387 258.294 135.133C258.605 134.877 258.984 134.728 259.379 134.705C260.048 134.713 260.716 134.775 261.376 134.891C263.939 135.226 266.486 135.668 269.018 136.218C274.08 137.321 279.05 138.845 283.878 140.776L284.784 141.136L285.028 141.235C285.138 141.285 285.242 141.348 285.338 141.421C285.535 141.566 285.703 141.75 285.833 141.961C285.961 142.171 286.048 142.405 286.088 142.65C286.128 142.895 286.12 143.146 286.065 143.387L285.803 144.38L284.718 148.25C284.027 150.83 283.294 153.397 282.572 155.965C281.112 161.1 279.592 166.204 278.006 171.308L276.814 175.129L276.671 175.606C276.622 175.795 276.541 175.974 276.433 176.133C276.317 176.295 276.171 176.431 276.003 176.531C275.834 176.632 275.648 176.695 275.455 176.716C275.274 176.748 275.088 176.748 274.907 176.716L274.436 176.63L273.482 176.45C270.955 175.966 268.428 175.451 265.906 174.924C263.385 174.397 260.875 173.882 258.354 173.312L254.575 172.487L252.697 172.022C252.068 171.898 251.448 171.726 250.843 171.507ZM250.843 171.507C251.448 171.729 252.068 171.906 252.697 172.034L254.581 172.462L258.36 173.262C260.887 173.771 263.415 174.248 265.948 174.719C268.481 175.191 271.02 175.606 273.56 176.009L274.513 176.158L274.984 176.233C275.123 176.254 275.263 176.254 275.402 176.233C275.529 176.216 275.652 176.172 275.762 176.102C275.872 176.033 275.966 175.94 276.039 175.83C276.167 175.553 276.263 175.261 276.326 174.961L277.404 171.11C278.829 165.969 280.194 160.815 281.577 155.661L283.615 147.921L284.629 144.051L284.867 143.108C284.887 143.024 284.89 142.936 284.876 142.851C284.862 142.766 284.83 142.684 284.784 142.612C284.743 142.539 284.685 142.478 284.617 142.432C284.584 142.407 284.548 142.386 284.51 142.37L284.301 142.283L283.413 141.918C281.029 140.95 278.608 140.088 276.165 139.307C273.721 138.525 271.253 137.824 268.755 137.229C266.258 136.634 263.754 136.1 261.221 135.691C260.615 135.568 260.002 135.491 259.385 135.461C259.123 135.469 258.868 135.559 258.656 135.719C258.443 135.88 258.282 136.103 258.193 136.361C257.957 136.967 257.758 137.589 257.597 138.221C257.418 138.841 257.227 139.499 257.066 140.144C255.695 145.291 254.581 150.52 253.633 155.773C253.164 158.402 252.711 161.036 252.274 163.674C252.053 164.995 251.839 166.31 251.589 167.624C251.475 168.282 251.332 168.933 251.195 169.59L250.963 170.564C250.92 170.726 250.864 170.884 250.796 171.035C250.759 171.11 250.744 171.195 250.752 171.279C250.761 171.362 250.792 171.442 250.843 171.507Z" fill="#FEF8EE"/>
<path d="M255.348 163.736C256.964 163.903 258.549 164.176 260.117 164.468C261.685 164.759 263.258 165.088 264.826 165.435C266.394 165.783 267.949 166.161 269.505 166.57C271.061 166.98 272.611 167.414 274.148 167.953C272.534 167.91 270.924 167.767 269.326 167.525C267.735 167.302 266.149 166.992 264.558 166.651C262.966 166.31 261.428 165.888 259.884 165.41C258.343 164.943 256.828 164.384 255.348 163.736Z" fill="#FEF8EE"/>
<path d="M257.207 156.311C258.787 156.448 260.337 156.702 261.875 156.994C263.412 157.285 264.938 157.614 266.458 158.005C267.978 158.395 269.48 158.811 270.977 159.288C272.486 159.75 273.972 160.29 275.429 160.907C273.866 160.766 272.31 160.542 270.768 160.237C269.224 159.952 267.698 159.617 266.178 159.22C264.658 158.823 263.15 158.414 261.654 157.936C260.146 157.473 258.662 156.93 257.207 156.311Z" fill="#FEF8EE"/>
<path d="M259.086 150.06C260.755 150.165 262.394 150.395 264.028 150.68C265.661 150.965 267.282 151.3 268.903 151.623C270.525 151.945 272.128 152.379 273.72 152.863C275.311 153.347 276.909 153.806 278.488 154.414C276.819 154.308 275.18 154.079 273.547 153.793C271.914 153.508 270.292 153.173 268.671 152.851C267.05 152.528 265.446 152.094 263.855 151.61C262.263 151.127 260.618 150.668 259.086 150.06Z" fill="#FEF8EE"/>
<path d="M260.876 142.965C262.524 143.071 264.164 143.278 265.788 143.585C267.409 143.864 269.013 144.205 270.616 144.59C272.219 144.974 273.799 145.383 275.385 145.83C276.97 146.276 278.532 146.779 280.094 147.362C278.447 147.266 276.807 147.069 275.182 146.773C273.561 146.5 271.951 146.152 270.354 145.768C268.756 145.383 267.171 144.968 265.585 144.528C264 144.087 262.438 143.548 260.876 142.965Z" fill="#FEF8EE"/>
<path d="M263.129 135.629L263.725 133.414C263.82 133.038 263.945 132.671 264.101 132.317C264.264 131.934 264.542 131.616 264.893 131.411C265.258 131.243 265.658 131.174 266.056 131.213C266.437 131.213 266.795 131.287 267.164 131.331C267.897 131.405 268.631 131.504 269.364 131.597C272.285 132.019 275.199 132.571 278.072 133.284C280.946 133.997 283.795 134.847 286.608 135.815C288.007 136.302 289.398 136.83 290.781 137.396L291.043 137.502C291.155 137.54 291.262 137.59 291.365 137.65C291.603 137.787 291.807 137.981 291.961 138.215C292.115 138.446 292.217 138.71 292.262 138.988C292.306 139.266 292.291 139.55 292.217 139.821L291.621 142.041C290.053 147.946 288.414 153.825 286.662 159.68C285.792 162.607 284.892 165.526 283.962 168.437L283.252 170.607L282.895 171.699C282.839 171.892 282.77 172.081 282.686 172.263C282.584 172.456 282.439 172.62 282.263 172.741C282.089 172.861 281.891 172.937 281.684 172.962C281.477 172.988 281.267 172.963 281.071 172.89L280.004 172.573L277.888 171.953L280.051 172.418L281.142 172.642C281.298 172.695 281.464 172.708 281.626 172.679C281.788 172.651 281.941 172.583 282.072 172.48C282.2 172.381 282.302 172.251 282.37 172.102C282.431 171.934 282.483 171.762 282.525 171.587L282.817 170.477L283.413 168.263L285.798 159.413L290.506 141.719L291.103 139.505C291.134 139.407 291.144 139.303 291.13 139.201C291.117 139.099 291.081 139.001 291.025 138.916C290.972 138.833 290.9 138.765 290.816 138.717C290.675 138.647 290.529 138.585 290.381 138.531C289.022 137.96 287.645 137.446 286.268 136.925C283.509 135.908 280.707 135.021 277.882 134.227C275.056 133.433 272.183 132.763 269.298 132.205C268.577 132.062 267.856 131.92 267.135 131.796C266.413 131.672 265.644 131.442 265.048 131.709C264.452 131.976 264.16 132.776 263.916 133.476L263.129 135.629Z" fill="#FEF8EE"/>
<path d="M250.805 171.705C250.99 169.379 251.312 167.072 251.634 164.759C251.956 162.445 252.343 160.157 252.725 157.856C253.106 155.555 253.559 153.273 254.042 150.997C254.525 148.72 255.043 146.444 255.705 144.218C255.502 145.365 255.282 146.506 255.109 147.654L254.513 151.09L253.321 157.967L252.093 164.839L250.805 171.705Z" fill="#FEF8EE"/>
<path d="M299.47 90.7097C300.009 91.7043 300.523 92.7096 301.029 93.7191L302.537 96.7562C303.043 97.7678 303.541 98.7794 304.09 99.774C304.64 100.769 305.192 101.753 305.796 102.707L305.984 103.007L306.089 102.671C306.214 102.276 306.363 101.891 306.536 101.518C306.703 101.139 306.883 100.764 307.07 100.394L307.624 99.2714C307.808 98.8987 307.989 98.5196 308.149 98.132C307.748 98.8604 307.311 99.5653 306.887 100.285C306.454 101.004 306.084 101.764 305.782 102.556L306.075 102.519C305.505 101.55 304.967 100.562 304.438 99.5674L302.871 96.5666C302.347 95.5656 301.815 94.5668 301.265 93.5849C300.716 92.6031 300.106 91.6383 299.47 90.7097Z" fill="#FEF8EE"/>
<path d="M299.697 90.7864C301.362 92.5348 303.115 94.1863 304.948 95.7339L306.336 96.8861L307.741 98.0106C308.677 98.7489 309.627 99.473 310.592 100.183L310.826 100.355L310.806 100.062C310.756 99.4656 310.663 98.8746 310.527 98.2938L310.126 96.5666C310.19 97.1566 310.293 97.7401 310.373 98.3237C310.463 98.9029 310.517 99.4877 310.535 100.074L310.748 99.9529L307.971 97.6826L305.2 95.4101C303.347 93.881 301.521 92.3433 299.697 90.7864Z" fill="#FEF8EE"/>
<path d="M299.48 90.5415C300.349 91.0675 301.235 91.5531 302.12 92.0323C303.005 92.5115 303.894 92.9886 304.769 93.4848C305.21 93.7276 305.646 93.9768 306.081 94.2324L306.737 94.6157C306.95 94.7499 307.166 94.882 307.383 95.0119C308.246 95.5358 309.117 96.0491 310.011 96.5261C309.209 95.9 308.378 95.3058 307.544 94.7265C306.709 94.1407 305.846 93.6011 304.959 93.11C304.075 92.6187 303.175 92.1608 302.259 91.7363C301.342 91.3118 300.416 90.9135 299.48 90.5415Z" fill="#FEF8EE"/>
<path d="M310.148 96.6496L311.753 95.7062C312.018 95.5485 312.281 95.3846 312.542 95.2099C312.809 95.0358 313.06 94.8354 313.292 94.6115C312.988 94.6884 312.689 94.7895 312.399 94.9139C312.11 95.0358 311.828 95.1781 311.556 95.3398C311.281 95.5015 311.021 95.6904 310.78 95.9042C310.533 96.1156 310.32 96.3672 310.148 96.6496Z" fill="#FEF8EE"/>
<path d="M299.654 90.5436C300.791 90.8829 301.928 91.2159 303.065 91.5424C304.199 91.8747 305.335 92.2027 306.464 92.5434L309.855 93.5615C310.987 93.9065 312.124 94.243 313.266 94.571C312.172 94.0868 311.066 93.6438 309.947 93.242C308.832 92.8373 307.702 92.4731 306.566 92.1303C305.431 91.7874 304.287 91.4913 303.133 91.2187C301.98 90.9461 300.824 90.7225 299.654 90.5436Z" fill="#FEF8EE"/>
<path d="M342.72 111.944L341.941 112.706C341.937 112.712 341.936 112.719 341.936 112.726C341.937 112.732 341.939 112.739 341.944 112.744C341.948 112.749 341.953 112.753 341.959 112.754C341.965 112.756 341.972 112.755 341.978 112.753L342.72 111.944Z" fill="#FEF8EE"/>
<path d="M340.541 113.838L339.643 114.429C339.623 114.443 339.609 114.464 339.604 114.489C339.598 114.513 339.601 114.539 339.613 114.561C339.626 114.583 339.646 114.597 339.67 114.603C339.693 114.608 339.718 114.604 339.738 114.59L340.622 113.953C340.629 113.947 340.636 113.941 340.641 113.933C340.646 113.925 340.649 113.916 340.651 113.907C340.655 113.888 340.652 113.869 340.642 113.852C340.632 113.836 340.617 113.825 340.599 113.821C340.581 113.817 340.563 113.82 340.547 113.831L340.541 113.838Z" fill="#FEF8EE"/>
<path d="M338.061 115.245L337.076 115.632C337.058 115.639 337.041 115.65 337.026 115.663C337.012 115.677 337 115.694 336.992 115.713C336.984 115.731 336.979 115.752 336.979 115.772C336.978 115.793 336.981 115.813 336.988 115.833C336.995 115.852 337.005 115.869 337.018 115.884C337.032 115.899 337.047 115.911 337.065 115.919C337.083 115.928 337.102 115.932 337.121 115.933C337.14 115.933 337.159 115.93 337.177 115.922L338.169 115.485C338.184 115.479 338.198 115.47 338.21 115.457C338.222 115.445 338.231 115.431 338.237 115.415C338.244 115.399 338.247 115.381 338.247 115.364C338.246 115.347 338.243 115.329 338.236 115.313C338.223 115.283 338.2 115.258 338.17 115.244C338.141 115.23 338.108 115.228 338.078 115.238L338.061 115.245Z" fill="#FEF8EE"/>
<path d="M335.389 116.083L334.357 116.237H334.35C334.325 116.241 334.302 116.249 334.28 116.263C334.259 116.276 334.241 116.294 334.226 116.315C334.211 116.336 334.2 116.36 334.194 116.385C334.189 116.411 334.187 116.437 334.191 116.463C334.195 116.489 334.203 116.514 334.215 116.537C334.228 116.56 334.244 116.58 334.264 116.596C334.284 116.612 334.306 116.623 334.33 116.63C334.354 116.637 334.379 116.638 334.404 116.635L335.466 116.452C335.512 116.443 335.553 116.416 335.58 116.376C335.607 116.336 335.618 116.286 335.612 116.237C335.604 116.189 335.579 116.146 335.542 116.117C335.505 116.088 335.458 116.076 335.413 116.083H335.389Z" fill="#FEF8EE"/>
<path d="M332.623 116.27C332.447 116.27 332.286 116.23 332.107 116.212L331.591 116.148H331.57C331.513 116.144 331.457 116.163 331.413 116.202C331.369 116.241 331.341 116.296 331.334 116.357C331.328 116.417 331.343 116.478 331.378 116.526C331.412 116.575 331.463 116.607 331.52 116.617L332.059 116.671C332.238 116.671 332.42 116.714 332.599 116.717C332.655 116.718 332.709 116.696 332.749 116.655C332.79 116.614 332.813 116.558 332.815 116.499C332.816 116.442 332.796 116.387 332.761 116.345C332.725 116.303 332.676 116.276 332.623 116.27Z" fill="#FEF8EE"/>
<path d="M329.914 115.707L328.949 115.306H328.926C328.862 115.28 328.791 115.281 328.728 115.31C328.666 115.339 328.617 115.393 328.592 115.46C328.566 115.528 328.568 115.603 328.595 115.669C328.622 115.736 328.673 115.788 328.737 115.815L329.749 116.212C329.808 116.229 329.87 116.221 329.925 116.192C329.979 116.162 330.021 116.112 330.042 116.051C330.063 115.991 330.063 115.924 330.04 115.863C330.018 115.803 329.975 115.754 329.921 115.725L329.914 115.707Z" fill="#FEF8EE"/>
<path d="M327.437 114.425L326.604 113.781L326.58 113.763C326.55 113.739 326.515 113.722 326.478 113.713C326.442 113.704 326.403 113.702 326.366 113.708C326.329 113.715 326.293 113.729 326.261 113.75C326.229 113.771 326.201 113.798 326.179 113.831C326.157 113.863 326.141 113.9 326.132 113.938C326.123 113.977 326.122 114.017 326.128 114.056C326.134 114.096 326.147 114.133 326.167 114.167C326.186 114.201 326.212 114.23 326.243 114.253L327.134 114.92C327.163 114.943 327.197 114.96 327.233 114.97C327.269 114.979 327.306 114.982 327.343 114.976C327.379 114.97 327.415 114.957 327.446 114.937C327.478 114.917 327.506 114.89 327.528 114.859C327.55 114.827 327.566 114.791 327.576 114.753C327.585 114.715 327.587 114.675 327.581 114.637C327.576 114.598 327.563 114.56 327.545 114.526C327.526 114.493 327.501 114.463 327.471 114.44L327.437 114.425Z" fill="#FEF8EE"/>
<path d="M325.359 112.524L324.725 111.664L324.705 111.636C324.656 111.57 324.585 111.527 324.506 111.517C324.428 111.507 324.349 111.53 324.287 111.582C324.224 111.634 324.184 111.71 324.175 111.793C324.165 111.876 324.187 111.96 324.236 112.026L324.911 112.932C324.961 112.991 325.03 113.027 325.104 113.034C325.179 113.041 325.253 113.017 325.311 112.968C325.37 112.918 325.408 112.847 325.419 112.769C325.43 112.69 325.412 112.61 325.37 112.545L325.359 112.524Z" fill="#FEF8EE"/>
<path d="M323.892 110.085C323.823 109.922 323.766 109.753 323.72 109.58L323.561 109.072V109.032C323.535 108.95 323.479 108.881 323.406 108.842C323.333 108.802 323.248 108.795 323.17 108.821C323.092 108.849 323.028 108.908 322.991 108.986C322.955 109.064 322.949 109.154 322.974 109.236L323.15 109.799C323.204 109.985 323.27 110.168 323.345 110.347C323.362 110.385 323.386 110.42 323.415 110.449C323.444 110.478 323.478 110.5 323.516 110.515C323.553 110.53 323.593 110.537 323.633 110.535C323.673 110.533 323.712 110.524 323.749 110.506C323.785 110.488 323.818 110.463 323.845 110.432C323.872 110.401 323.893 110.365 323.907 110.325C323.921 110.285 323.928 110.243 323.926 110.201C323.925 110.158 323.915 110.117 323.899 110.078L323.892 110.085Z" fill="#FEF8EE"/>
<path d="M323.386 107.31C323.4 106.96 323.452 106.612 323.541 106.275C323.561 106.188 323.549 106.096 323.507 106.018C323.466 105.939 323.399 105.88 323.319 105.852C323.237 105.833 323.151 105.846 323.078 105.89C323.005 105.933 322.95 106.004 322.924 106.089C322.826 106.477 322.77 106.876 322.759 107.278C322.763 107.361 322.796 107.44 322.852 107.499C322.908 107.558 322.983 107.593 323.062 107.597C323.141 107.6 323.218 107.573 323.278 107.519C323.339 107.465 323.379 107.389 323.389 107.306L323.386 107.31Z" fill="#FEF8EE"/>
<path d="M324.337 104.843C324.566 104.618 324.836 104.445 325.13 104.334C325.2 104.293 325.254 104.227 325.282 104.148C325.311 104.068 325.312 103.981 325.285 103.901C325.258 103.821 325.206 103.753 325.136 103.711C325.067 103.668 324.986 103.653 324.907 103.668C324.531 103.812 324.187 104.036 323.895 104.327C323.854 104.394 323.835 104.473 323.841 104.552C323.847 104.632 323.877 104.707 323.928 104.766C323.979 104.825 324.047 104.864 324.121 104.877C324.195 104.89 324.271 104.877 324.337 104.839V104.843Z" fill="#FEF8EE"/>
<path d="M326.669 104.277C326.969 104.362 327.251 104.509 327.498 104.71C327.569 104.751 327.651 104.764 327.729 104.746C327.807 104.729 327.877 104.682 327.927 104.615C327.976 104.548 328.001 104.464 327.997 104.379C327.993 104.294 327.961 104.214 327.907 104.151C327.591 103.894 327.231 103.703 326.847 103.589C326.761 103.564 326.67 103.576 326.592 103.622C326.514 103.668 326.457 103.745 326.432 103.836C326.409 103.927 326.42 104.025 326.463 104.108C326.507 104.19 326.579 104.251 326.665 104.277H326.669Z" fill="#FEF8EE"/>
<path d="M328.342 106.067C328.427 106.388 328.455 106.723 328.426 107.056C328.441 107.129 328.477 107.196 328.53 107.247C328.583 107.297 328.65 107.329 328.72 107.337C328.791 107.345 328.862 107.329 328.924 107.291C328.986 107.253 329.035 107.196 329.064 107.127C329.105 106.71 329.073 106.289 328.969 105.885C328.97 105.829 328.958 105.775 328.936 105.725C328.913 105.675 328.88 105.632 328.839 105.598C328.797 105.564 328.749 105.541 328.698 105.53C328.647 105.519 328.595 105.521 328.544 105.535C328.494 105.55 328.448 105.576 328.409 105.613C328.37 105.649 328.339 105.695 328.319 105.746C328.3 105.797 328.292 105.853 328.295 105.908C328.299 105.963 328.315 106.016 328.342 106.064V106.067Z" fill="#FEF8EE"/>
<path d="M327.795 108.549C327.577 108.803 327.324 109.021 327.046 109.197C326.976 109.245 326.926 109.32 326.908 109.406C326.89 109.492 326.905 109.583 326.95 109.657C326.995 109.732 327.065 109.784 327.147 109.804C327.228 109.823 327.313 109.807 327.383 109.759C327.715 109.551 328.016 109.293 328.277 108.993C328.333 108.927 328.362 108.841 328.358 108.753C328.354 108.664 328.317 108.581 328.255 108.522C328.194 108.463 328.112 108.432 328.029 108.436C327.946 108.441 327.868 108.48 327.812 108.545L327.795 108.549Z" fill="#FEF8EE"/>
<path d="M325.498 109.852L324.486 110.042H324.452C324.412 110.047 324.372 110.06 324.337 110.081C324.301 110.102 324.27 110.131 324.246 110.165C324.221 110.2 324.204 110.239 324.194 110.281C324.184 110.323 324.183 110.367 324.19 110.41C324.197 110.452 324.212 110.493 324.235 110.529C324.257 110.565 324.286 110.596 324.32 110.619C324.354 110.643 324.392 110.659 324.433 110.666C324.473 110.674 324.514 110.672 324.553 110.662L325.636 110.468C325.713 110.453 325.781 110.408 325.827 110.341C325.872 110.275 325.892 110.192 325.883 110.11C325.868 110.03 325.825 109.958 325.762 109.909C325.7 109.861 325.622 109.839 325.545 109.849L325.498 109.852Z" fill="#FEF8EE"/>
<path d="M322.765 110.114L321.723 110.053C321.647 110.049 321.573 110.077 321.517 110.131C321.461 110.184 321.427 110.259 321.422 110.339C321.42 110.379 321.425 110.419 321.437 110.456C321.449 110.494 321.467 110.529 321.492 110.559C321.517 110.588 321.547 110.612 321.581 110.629C321.615 110.647 321.652 110.656 321.689 110.658L322.765 110.73C322.803 110.732 322.841 110.727 322.878 110.714C322.914 110.701 322.947 110.68 322.976 110.653C323.004 110.627 323.028 110.594 323.045 110.558C323.062 110.521 323.071 110.482 323.074 110.441C323.076 110.401 323.071 110.36 323.059 110.322C323.047 110.284 323.027 110.248 323.002 110.218C322.977 110.188 322.946 110.163 322.912 110.145C322.878 110.127 322.84 110.116 322.802 110.114H322.782H322.765Z" fill="#FEF8EE"/>
<path d="M320.002 109.806L318.99 109.559C318.958 109.55 318.924 109.549 318.891 109.554C318.858 109.559 318.827 109.571 318.798 109.59C318.77 109.608 318.745 109.632 318.725 109.661C318.705 109.689 318.691 109.721 318.683 109.756C318.675 109.79 318.673 109.826 318.678 109.861C318.683 109.896 318.695 109.929 318.712 109.959C318.729 109.99 318.752 110.016 318.779 110.037C318.806 110.058 318.836 110.073 318.868 110.082L319.914 110.368C319.949 110.379 319.986 110.382 320.022 110.377C320.058 110.373 320.093 110.36 320.125 110.341C320.156 110.321 320.184 110.295 320.206 110.264C320.227 110.233 320.243 110.198 320.252 110.16C320.262 110.123 320.266 110.085 320.262 110.046C320.258 110.008 320.246 109.971 320.228 109.937C320.21 109.904 320.186 109.874 320.157 109.851C320.128 109.828 320.095 109.811 320.059 109.802L320.002 109.806Z" fill="#FEF8EE"/>
<path d="M317.344 108.975L316.399 108.513H316.383C316.33 108.487 316.269 108.483 316.214 108.504C316.159 108.525 316.114 108.568 316.089 108.624C316.064 108.68 316.061 108.744 316.081 108.803C316.1 108.861 316.141 108.909 316.194 108.936L317.145 109.423C317.172 109.437 317.202 109.446 317.232 109.448C317.263 109.451 317.293 109.447 317.322 109.436C317.351 109.426 317.378 109.41 317.401 109.388C317.423 109.367 317.442 109.341 317.455 109.312C317.469 109.283 317.478 109.251 317.48 109.218C317.482 109.186 317.478 109.153 317.469 109.122C317.459 109.091 317.443 109.062 317.423 109.038C317.403 109.013 317.378 108.993 317.351 108.979L317.344 108.975Z" fill="#FEF8EE"/>
<path d="M314.918 107.543C314.635 107.328 314.371 107.088 314.102 106.855C314.064 106.822 314.016 106.807 313.967 106.811C313.919 106.816 313.874 106.841 313.842 106.88C313.811 106.92 313.795 106.971 313.799 107.022C313.803 107.074 313.825 107.122 313.862 107.156C314.135 107.403 314.405 107.661 314.692 107.89C314.734 107.916 314.784 107.924 314.832 107.914C314.879 107.904 314.922 107.875 314.951 107.833C314.98 107.792 314.994 107.74 314.99 107.689C314.985 107.637 314.964 107.589 314.928 107.553L314.918 107.543Z" fill="#FEF8EE"/>
<path d="M312.891 105.537L312.26 104.649C312.237 104.62 312.204 104.601 312.168 104.596C312.133 104.591 312.097 104.601 312.068 104.623C312.038 104.645 312.018 104.679 312.011 104.716C312.004 104.753 312.011 104.792 312.03 104.825L312.637 105.752C312.662 105.79 312.7 105.815 312.742 105.823C312.784 105.831 312.828 105.821 312.864 105.795C312.899 105.769 312.923 105.729 312.931 105.684C312.938 105.639 312.929 105.593 312.904 105.555L312.891 105.537Z" fill="#FEF8EE"/>
<path d="M311.41 103.038L311.022 101.999C311.018 101.988 311.012 101.978 311.005 101.97C310.997 101.961 310.988 101.954 310.978 101.949C310.968 101.945 310.957 101.942 310.946 101.942C310.935 101.942 310.924 101.945 310.914 101.949C310.893 101.958 310.877 101.975 310.867 101.996C310.858 102.017 310.856 102.041 310.863 102.064L311.221 103.138C311.225 103.152 311.232 103.165 311.242 103.176C311.251 103.187 311.262 103.195 311.275 103.202C311.287 103.208 311.301 103.212 311.315 103.212C311.329 103.213 311.342 103.211 311.356 103.206C311.369 103.201 311.381 103.194 311.391 103.184C311.401 103.174 311.41 103.162 311.416 103.149C311.422 103.135 311.425 103.121 311.426 103.106C311.426 103.091 311.424 103.077 311.42 103.063L311.41 103.038Z" fill="#FEF8EE"/>
<path d="M310.61 100.191L310.525 99.0736C310.524 99.0698 310.521 99.0665 310.518 99.0642C310.515 99.0619 310.511 99.0607 310.507 99.0607C310.503 99.0607 310.499 99.0619 310.496 99.0642C310.492 99.0665 310.49 99.0698 310.488 99.0736L310.519 100.202C310.518 100.208 310.519 100.215 310.521 100.221C310.523 100.228 310.527 100.233 310.531 100.238C310.536 100.243 310.541 100.247 310.547 100.249C310.553 100.251 310.56 100.252 310.566 100.252C310.578 100.252 310.591 100.246 310.599 100.237C310.608 100.228 310.613 100.215 310.613 100.202L310.61 100.191Z" fill="#FEF8EE"/>
</g>
<defs>
<clipPath id="clip0_2_707">
<rect width="346" height="200" rx="4" fill="white"/>
</clipPath>
</defs>
</svg>
