<svg width="346" height="200" viewBox="0 0 346 200" fill="none" xmlns="http://www.w3.org/2000/svg">
<g opacity="0.08">
<mask id="mask0_65_2652" style="mask-type:luminance" maskUnits="userSpaceOnUse" x="0" y="-39" width="346" height="241">
<path d="M346 -38.3438H0.480469V201.323H346V-38.3438Z" fill="white"/>
</mask>
<g mask="url(#mask0_65_2652)">
<path d="M18.7832 117.44V108.122C18.7832 76.0224 18.7832 43.9246 18.7832 11.8285C18.7832 -6.28074 18.7832 -24.3868 18.7832 -42.4896C18.7832 -42.6676 18.7153 -42.8382 18.5943 -42.9641C18.4734 -43.0899 18.3093 -43.1606 18.1383 -43.1606C17.9672 -43.1606 17.8032 -43.0899 17.6822 -42.9641C17.5612 -42.8382 17.4933 -42.6676 17.4933 -42.4896C17.4933 -10.2304 17.4933 22.0303 17.4933 54.2926C17.4933 76.3611 17.4933 98.428 17.4933 120.493C17.4687 130.681 17.4549 140.868 17.4518 151.056V204.904C17.4498 204.997 17.4662 205.089 17.5 205.174C17.5339 205.26 17.5844 205.338 17.6485 205.402C17.7125 205.466 17.7887 205.516 17.8722 205.549C17.9557 205.581 18.0447 205.595 18.1337 205.589H18.2212H18.2627C18.4194 205.569 18.5631 205.488 18.6654 205.363C18.7678 205.238 18.8213 205.078 18.8155 204.913C18.8063 175.756 18.8662 146.603 18.7832 117.44Z" fill="#FEF8EE"/>
<path d="M38.2574 117.44V108.122C38.2574 76.0224 38.2574 43.9246 38.2574 11.8285C38.2574 -6.28074 38.2574 -24.3868 38.2574 -42.4896C38.2574 -42.6676 38.1894 -42.8382 38.0684 -42.9641C37.9475 -43.0899 37.7834 -43.1606 37.6124 -43.1606C37.4413 -43.1606 37.2773 -43.0899 37.1563 -42.9641C37.0354 -42.8382 36.9674 -42.6676 36.9674 -42.4896C36.9674 -10.2304 36.9674 22.0303 36.9674 54.2926C36.9674 76.3611 36.9674 98.428 36.9674 120.493C36.9459 130.681 36.9321 140.868 36.926 151.056C36.926 169.005 36.926 186.954 36.926 204.904C36.9239 204.997 36.9403 205.089 36.9742 205.174C37.008 205.26 37.0585 205.338 37.1226 205.402C37.1866 205.466 37.2628 205.516 37.3463 205.549C37.4298 205.581 37.5189 205.595 37.6078 205.589H37.6953H37.7368C37.8935 205.569 38.0372 205.488 38.1395 205.363C38.2419 205.238 38.2954 205.078 38.2896 204.913C38.2988 175.756 38.3587 146.603 38.2574 117.44Z" fill="#FEF8EE"/>
<path d="M57.7676 117.44V108.122C57.7676 76.0224 57.7676 43.9246 57.7676 11.8285C57.7676 -6.28074 57.7676 -24.3868 57.7676 -42.4896C57.7676 -42.6676 57.6997 -42.8382 57.5787 -42.9641C57.4577 -43.0899 57.2937 -43.1606 57.1226 -43.1606C56.9516 -43.1606 56.7875 -43.0899 56.6666 -42.9641C56.5456 -42.8382 56.4777 -42.6676 56.4777 -42.4896C56.4777 -10.2304 56.4777 22.0303 56.4777 54.2926C56.4777 76.3611 56.4777 98.428 56.4777 120.493C56.4562 130.681 56.4423 140.868 56.4362 151.056V204.904C56.4342 204.997 56.4506 205.089 56.4844 205.174C56.5182 205.26 56.5688 205.338 56.6328 205.402C56.6969 205.466 56.7731 205.516 56.8566 205.549C56.9401 205.581 57.0291 205.595 57.118 205.589H57.2056H57.247C57.4037 205.569 57.5474 205.488 57.6498 205.363C57.7521 205.238 57.8057 205.078 57.7999 204.913C57.7906 175.756 57.8505 146.603 57.7676 117.44Z" fill="#FEF8EE"/>
<path d="M77.2588 117.44V108.122C77.2588 76.0224 77.2588 43.9246 77.2588 11.8285C77.2588 -6.28074 77.2588 -24.3868 77.2588 -42.4896C77.2588 -42.6676 77.1909 -42.8382 77.0699 -42.9641C76.949 -43.0899 76.7849 -43.1606 76.6138 -43.1606C76.4428 -43.1606 76.2787 -43.0899 76.1578 -42.9641C76.0368 -42.8382 75.9689 -42.6676 75.9689 -42.4896C75.9689 -10.2304 75.9689 22.0303 75.9689 54.2926C75.9689 76.3611 75.9689 98.428 75.9689 120.493C75.9443 130.681 75.9305 140.868 75.9274 151.056V204.904C75.9254 204.997 75.9418 205.089 75.9756 205.174C76.0095 205.26 76.06 205.338 76.1241 205.402C76.1881 205.466 76.2643 205.516 76.3478 205.549C76.4313 205.581 76.5203 205.595 76.6092 205.589H76.6968H76.7382C76.8949 205.569 77.0386 205.488 77.141 205.363C77.2433 205.238 77.2969 205.078 77.2911 204.913C77.2818 175.756 77.3417 146.603 77.2588 117.44Z" fill="#FEF8EE"/>
<path d="M96.7647 117.44V108.122C96.7647 76.0224 96.7647 43.9246 96.7647 11.8285C96.7647 -6.28074 96.7647 -24.3868 96.7647 -42.4896C96.7647 -42.6676 96.6967 -42.8382 96.5758 -42.9641C96.4548 -43.0899 96.2908 -43.1606 96.1197 -43.1606C95.9487 -43.1606 95.7846 -43.0899 95.6636 -42.9641C95.5427 -42.8382 95.4747 -42.6676 95.4747 -42.4896C95.4747 -10.2304 95.4747 22.0303 95.4747 54.2926C95.4747 76.3611 95.4747 98.428 95.4747 120.493C95.4502 130.681 95.4363 140.868 95.4333 151.056C95.4333 169.005 95.4333 186.954 95.4333 204.904C95.4312 204.997 95.4476 205.089 95.4815 205.174C95.5153 205.26 95.5659 205.338 95.6299 205.402C95.694 205.466 95.7702 205.516 95.8537 205.549C95.9372 205.581 96.0262 205.595 96.1151 205.589H96.2026H96.2441C96.4008 205.569 96.5445 205.488 96.6468 205.363C96.7492 205.238 96.8027 205.078 96.7969 204.913C96.7647 175.756 96.8338 146.603 96.7647 117.44Z" fill="#FEF8EE"/>
<path d="M116.243 117.44V108.122C116.243 76.0224 116.243 43.9246 116.243 11.8285C116.243 -6.28074 116.243 -24.3868 116.243 -42.4896C116.243 -42.6676 116.175 -42.8382 116.054 -42.9641C115.933 -43.0899 115.769 -43.1606 115.598 -43.1606C115.427 -43.1606 115.263 -43.0899 115.142 -42.9641C115.021 -42.8382 114.953 -42.6676 114.953 -42.4896C114.953 -10.2304 114.953 22.0303 114.953 54.2926C114.953 76.3611 114.953 98.428 114.953 120.493C114.929 130.681 114.915 140.868 114.912 151.056V204.904C114.91 204.997 114.926 205.089 114.96 205.174C114.994 205.26 115.044 205.338 115.108 205.402C115.172 205.466 115.249 205.516 115.332 205.549C115.416 205.581 115.505 205.595 115.594 205.589H115.681H115.723C115.879 205.569 116.023 205.488 116.125 205.363C116.228 205.238 116.281 205.078 116.275 204.913C116.266 175.756 116.326 146.603 116.243 117.44Z" fill="#FEF8EE"/>
<path d="M135.734 117.44V108.122C135.734 76.0224 135.734 43.9246 135.734 11.8285C135.734 -6.28074 135.734 -24.3868 135.734 -42.4896C135.734 -42.6676 135.666 -42.8382 135.545 -42.9641C135.425 -43.0899 135.26 -43.1606 135.089 -43.1606C134.918 -43.1606 134.754 -43.0899 134.633 -42.9641C134.512 -42.8382 134.444 -42.6676 134.444 -42.4896C134.444 -10.2304 134.444 22.0303 134.444 54.2926C134.444 76.3611 134.444 98.428 134.444 120.493C134.42 130.681 134.406 140.868 134.403 151.056C134.403 169.005 134.403 186.954 134.403 204.904C134.401 204.997 134.417 205.089 134.451 205.174C134.485 205.26 134.536 205.338 134.6 205.402C134.664 205.466 134.74 205.516 134.823 205.549C134.907 205.581 134.996 205.595 135.085 205.589H135.172H135.214C135.371 205.569 135.514 205.488 135.617 205.363C135.719 205.238 135.772 205.078 135.767 204.913C135.757 175.756 135.817 146.603 135.734 117.44Z" fill="#FEF8EE"/>
<path d="M155.228 117.44V108.122C155.228 76.0224 155.228 43.9246 155.228 11.8285C155.228 -6.28074 155.228 -24.3868 155.228 -42.4896C155.228 -42.6676 155.16 -42.8382 155.039 -42.9641C154.918 -43.0899 154.754 -43.1606 154.583 -43.1606C154.412 -43.1606 154.247 -43.0899 154.127 -42.9641C154.006 -42.8382 153.938 -42.6676 153.938 -42.4896C153.938 -10.2304 153.938 22.0303 153.938 54.2926C153.938 76.3611 153.938 98.428 153.938 120.493C153.916 130.681 153.902 140.868 153.896 151.056V204.904C153.894 204.997 153.911 205.089 153.944 205.174C153.978 205.26 154.029 205.338 154.093 205.402C154.157 205.466 154.233 205.516 154.317 205.549C154.4 205.581 154.489 205.595 154.578 205.589H154.666H154.707C154.864 205.569 155.007 205.488 155.11 205.363C155.212 205.238 155.266 205.078 155.26 204.913C155.274 175.756 155.31 146.603 155.228 117.44Z" fill="#FEF8EE"/>
<path d="M174.718 117.44V108.122C174.718 76.0224 174.718 43.9246 174.718 11.8285C174.718 -6.28074 174.718 -24.3868 174.718 -42.4896C174.718 -42.6676 174.65 -42.8382 174.529 -42.9641C174.408 -43.0899 174.244 -43.1606 174.073 -43.1606C173.902 -43.1606 173.738 -43.0899 173.617 -42.9641C173.496 -42.8382 173.428 -42.6676 173.428 -42.4896C173.428 -10.2304 173.428 22.0303 173.428 54.2926C173.428 76.3611 173.428 98.428 173.428 120.493C173.404 130.681 173.39 140.868 173.387 151.056V204.904C173.385 204.997 173.401 205.089 173.435 205.174C173.469 205.26 173.519 205.338 173.584 205.402C173.648 205.466 173.724 205.516 173.807 205.549C173.891 205.581 173.98 205.595 174.069 205.589H174.156H174.198C174.354 205.569 174.498 205.488 174.6 205.363C174.703 205.238 174.756 205.078 174.751 204.913C174.741 175.756 174.801 146.603 174.718 117.44Z" fill="#FEF8EE"/>
<path d="M194.21 117.44V108.122C194.21 76.0224 194.21 43.9246 194.21 11.8285C194.21 -6.28074 194.21 -24.3868 194.21 -42.4896C194.21 -42.6676 194.143 -42.8382 194.022 -42.9641C193.901 -43.0899 193.737 -43.1606 193.566 -43.1606C193.394 -43.1606 193.23 -43.0899 193.109 -42.9641C192.988 -42.8382 192.921 -42.6676 192.921 -42.4896C192.921 -10.2304 192.921 22.0303 192.921 54.2926C192.921 76.3611 192.921 98.428 192.921 120.493C192.899 130.681 192.885 140.868 192.879 151.056C192.879 169.005 192.879 186.954 192.879 204.904C192.877 204.997 192.893 205.089 192.927 205.174C192.961 205.26 193.012 205.338 193.076 205.402C193.14 205.466 193.216 205.516 193.299 205.549C193.383 205.581 193.472 205.595 193.561 205.589H193.648H193.69C193.847 205.569 193.99 205.488 194.093 205.363C194.195 205.238 194.249 205.078 194.243 204.913C194.234 175.756 194.293 146.603 194.21 117.44Z" fill="#FEF8EE"/>
<path d="M213.702 117.44V108.122C213.702 76.0224 213.702 43.9246 213.702 11.8285C213.702 -6.28074 213.702 -24.3868 213.702 -42.4896C213.702 -42.6676 213.634 -42.8382 213.513 -42.9641C213.392 -43.0899 213.228 -43.1606 213.057 -43.1606C212.886 -43.1606 212.722 -43.0899 212.601 -42.9641C212.48 -42.8382 212.412 -42.6676 212.412 -42.4896C212.412 -10.2304 212.412 22.0303 212.412 54.2926C212.412 76.3611 212.412 98.428 212.412 120.493C212.387 130.681 212.373 140.868 212.37 151.056V204.904C212.368 204.997 212.385 205.089 212.418 205.174C212.452 205.26 212.503 205.338 212.567 205.402C212.631 205.466 212.707 205.516 212.791 205.549C212.874 205.581 212.963 205.595 213.052 205.589H213.14H213.181C213.338 205.569 213.482 205.488 213.584 205.363C213.686 205.238 213.74 205.078 213.734 204.913C213.725 175.756 213.78 146.603 213.702 117.44Z" fill="#FEF8EE"/>
<path d="M233.195 117.44V108.122C233.195 76.0224 233.195 43.9246 233.195 11.8285C233.195 -6.28074 233.195 -24.3868 233.195 -42.4896C233.195 -42.6676 233.127 -42.8382 233.006 -42.9641C232.885 -43.0899 232.721 -43.1606 232.55 -43.1606C232.379 -43.1606 232.215 -43.0899 232.094 -42.9641C231.973 -42.8382 231.905 -42.6676 231.905 -42.4896C231.905 -10.2304 231.905 22.0303 231.905 54.2926C231.905 76.3611 231.905 98.428 231.905 120.493C231.883 130.681 231.87 140.868 231.863 151.056V204.904C231.861 204.997 231.878 205.089 231.912 205.174C231.945 205.26 231.996 205.338 232.06 205.402C232.124 205.466 232.2 205.516 232.284 205.549C232.367 205.581 232.456 205.595 232.545 205.589H232.633H232.67C232.826 205.569 232.97 205.488 233.072 205.363C233.175 205.238 233.228 205.078 233.223 204.913C233.218 175.756 233.278 146.603 233.195 117.44Z" fill="#FEF8EE"/>
<path d="M252.687 117.44V108.122C252.687 76.0224 252.687 43.9246 252.687 11.8285C252.687 -6.28073 252.687 -24.3868 252.687 -42.4896C252.687 -42.6676 252.619 -42.8382 252.498 -42.9641C252.377 -43.0899 252.213 -43.1606 252.042 -43.1606C251.871 -43.1606 251.707 -43.0899 251.586 -42.9641C251.465 -42.8382 251.397 -42.6676 251.397 -42.4896C251.397 -10.2304 251.397 22.0303 251.397 54.2926C251.397 76.3611 251.397 98.428 251.397 120.493C251.373 130.681 251.359 140.868 251.356 151.056C251.356 169.005 251.356 186.955 251.356 204.904C251.354 204.995 251.37 205.085 251.402 205.17C251.435 205.254 251.484 205.331 251.546 205.395C251.608 205.459 251.682 205.509 251.763 205.543C251.845 205.576 251.932 205.592 252.019 205.589H252.107H252.148C252.305 205.569 252.448 205.488 252.551 205.363C252.653 205.238 252.707 205.078 252.701 204.914C252.71 175.756 252.77 146.603 252.687 117.44Z" fill="#FEF8EE"/>
<path d="M272.178 117.44V108.122C272.178 76.0224 272.178 43.9246 272.178 11.8285C272.178 -6.28074 272.178 -24.3868 272.178 -42.4896C272.178 -42.6676 272.11 -42.8382 271.989 -42.9641C271.868 -43.0899 271.704 -43.1606 271.533 -43.1606C271.362 -43.1606 271.198 -43.0899 271.077 -42.9641C270.956 -42.8382 270.888 -42.6676 270.888 -42.4896C270.888 -10.2304 270.888 22.0303 270.888 54.2926C270.888 76.3611 270.888 98.428 270.888 120.493C270.867 130.681 270.853 140.868 270.847 151.056V204.904C270.845 204.997 270.861 205.089 270.895 205.174C270.929 205.26 270.979 205.338 271.043 205.402C271.108 205.466 271.184 205.516 271.267 205.549C271.351 205.581 271.44 205.595 271.529 205.589H271.616H271.658C271.814 205.569 271.958 205.488 272.06 205.363C272.163 205.238 272.216 205.078 272.211 204.913C272.201 175.756 272.261 146.603 272.178 117.44Z" fill="#FEF8EE"/>
<path d="M291.67 117.44V108.122C291.67 76.0224 291.67 43.9246 291.67 11.8285C291.648 -6.28074 291.638 -24.3868 291.638 -42.4896C291.638 -42.6676 291.57 -42.8382 291.449 -42.9641C291.328 -43.0899 291.164 -43.1606 290.993 -43.1606C290.822 -43.1606 290.658 -43.0899 290.537 -42.9641C290.416 -42.8382 290.348 -42.6676 290.348 -42.4896C290.348 -10.2304 290.348 22.0303 290.348 54.2926C290.348 76.3611 290.348 98.428 290.348 120.493C290.323 130.681 290.309 140.868 290.306 151.056V204.904C290.304 204.997 290.321 205.089 290.355 205.174C290.388 205.26 290.439 205.338 290.503 205.402C290.567 205.466 290.643 205.516 290.727 205.549C290.81 205.581 290.899 205.595 290.988 205.589H291.076H291.117C291.274 205.569 291.418 205.488 291.52 205.363C291.622 205.238 291.676 205.078 291.67 204.913C291.693 175.756 291.753 146.603 291.67 117.44Z" fill="#FEF8EE"/>
<path d="M311.162 117.44V108.122C311.162 76.0224 311.162 43.9246 311.162 11.8285C311.162 -6.28074 311.162 -24.3868 311.162 -42.4896C311.162 -42.6676 311.094 -42.8382 310.973 -42.9641C310.852 -43.0899 310.688 -43.1606 310.517 -43.1606C310.346 -43.1606 310.182 -43.0899 310.061 -42.9641C309.94 -42.8382 309.872 -42.6676 309.872 -42.4896C309.872 -10.2304 309.872 22.0303 309.872 54.2926C309.872 76.3611 309.872 98.428 309.872 120.493C309.85 130.681 309.836 140.868 309.83 151.056C309.83 169.005 309.83 186.954 309.83 204.904C309.828 204.997 309.845 205.089 309.878 205.174C309.912 205.26 309.963 205.338 310.027 205.402C310.091 205.466 310.167 205.516 310.251 205.549C310.334 205.581 310.423 205.595 310.512 205.589H310.6H310.641C310.798 205.569 310.941 205.488 311.044 205.363C311.146 205.238 311.2 205.078 311.194 204.913C311.185 175.756 311.245 146.603 311.162 117.44Z" fill="#FEF8EE"/>
<path d="M330.655 117.44V108.122C330.655 76.0224 330.655 43.9246 330.655 11.8285C330.655 -6.28074 330.655 -24.3868 330.655 -42.4896C330.655 -42.6676 330.587 -42.8382 330.466 -42.9641C330.345 -43.0899 330.181 -43.1606 330.01 -43.1606C329.839 -43.1606 329.675 -43.0899 329.554 -42.9641C329.433 -42.8382 329.365 -42.6676 329.365 -42.4896C329.365 -10.2304 329.365 22.0303 329.365 54.2926C329.365 76.3611 329.365 98.428 329.365 120.493C329.34 130.681 329.326 140.868 329.323 151.056V204.904C329.321 204.997 329.338 205.089 329.372 205.174C329.405 205.26 329.456 205.338 329.52 205.402C329.584 205.466 329.66 205.516 329.744 205.549C329.827 205.581 329.916 205.595 330.005 205.589H330.093H330.134C330.291 205.569 330.435 205.488 330.537 205.363C330.639 205.238 330.693 205.078 330.687 204.913C330.678 175.756 330.738 146.603 330.655 117.44Z" fill="#FEF8EE"/>
<path d="M124.038 16.1811H137.223C182.582 16.1811 227.942 16.1811 273.302 16.1811H350.063C351.284 16.1811 351.284 14.8389 350.063 14.8389H213.288C182.102 14.8389 150.919 14.8389 119.739 14.8389C105.344 14.8102 90.9461 14.7942 76.5449 14.791H0.447647C-0.197323 14.791 -0.519808 15.1457 -0.519808 15.5004C-0.521682 15.5308 -0.521682 15.5612 -0.519808 15.5915C-0.522043 15.6058 -0.522043 15.6204 -0.519808 15.6346C-0.450704 15.9366 -0.132826 16.2098 0.429219 16.2098C41.6366 16.2098 82.8395 16.2003 124.038 16.1811Z" fill="#FEF8EE"/>
<path d="M124.038 35.3013H137.223C182.582 35.3013 227.942 35.3013 273.302 35.3013H350.063C351.284 35.3013 351.284 33.9592 350.063 33.9592H213.288H119.739C105.344 33.9336 90.9461 33.9192 76.5449 33.916H0.447647C-0.197323 33.916 -0.519808 34.2707 -0.519808 34.6254C-0.522013 34.6541 -0.522013 34.683 -0.519808 34.7117C-0.522043 34.726 -0.522043 34.7406 -0.519808 34.7548C-0.450704 35.0616 -0.132826 35.3348 0.429219 35.3348C41.6366 35.3316 82.8395 35.3205 124.038 35.3013Z" fill="#FEF8EE"/>
<path d="M124.038 54.4268H137.223C182.582 54.4268 227.942 54.4268 273.302 54.4268H350.063C351.284 54.4268 351.284 53.0846 350.063 53.0846H213.288H119.739C105.344 53.0623 90.9461 53.0479 76.5449 53.0415H0.447647C-0.197323 53.0415 -0.519808 53.3962 -0.519808 53.7509C-0.522013 53.7796 -0.522013 53.8085 -0.519808 53.8372C-0.522043 53.8515 -0.522043 53.8661 -0.519808 53.8803C-0.450704 54.1871 -0.132826 54.4555 0.429219 54.4555C41.6366 54.4555 82.8395 54.446 124.038 54.4268Z" fill="#FEF8EE"/>
<path d="M124.038 73.5528H137.223C182.582 73.5528 227.942 73.5528 273.302 73.5528H350.063C351.284 73.5528 351.284 72.2155 350.063 72.2155H213.288C182.102 72.2155 150.919 72.2155 119.739 72.2155C105.344 72.1931 90.9461 72.1788 76.5449 72.1724H0.447647C-0.197323 72.1724 -0.519808 72.5271 -0.519808 72.8818C-0.522013 72.9105 -0.522013 72.9393 -0.519808 72.9681C-0.522043 72.9823 -0.522043 72.9969 -0.519808 73.0112C-0.450704 73.318 -0.132826 73.5864 0.429219 73.5864C41.6366 73.5832 82.8395 73.572 124.038 73.5528Z" fill="#FEF8EE"/>
<path d="M124.038 92.6773H137.223C182.583 92.6773 227.943 92.6773 273.302 92.6773H350.063C351.284 92.6773 351.284 91.3351 350.063 91.3351H213.288C182.102 91.3351 150.919 91.3351 119.74 91.3351C105.345 91.3064 90.9464 91.292 76.5451 91.292H0.447899C-0.197071 91.292 -0.519556 91.6467 -0.519556 91.9966C-0.522127 92.0269 -0.522127 92.0574 -0.519556 92.0877C-0.521791 92.102 -0.521791 92.1165 -0.519556 92.1308C-0.450452 92.4328 -0.132574 92.706 0.429471 92.706C41.6369 92.706 82.8397 92.6964 124.038 92.6773Z" fill="#FEF8EE"/>
<path d="M124.038 111.803H137.223C182.582 111.803 227.942 111.803 273.302 111.803H350.063C351.284 111.803 351.284 110.461 350.063 110.461H213.288C182.102 110.461 150.919 110.461 119.739 110.461C105.344 110.432 90.9461 110.417 76.5449 110.417H0.447647C-0.197323 110.417 -0.519808 110.767 -0.519808 111.122C-0.521682 111.152 -0.521682 111.183 -0.519808 111.213C-0.522043 111.227 -0.522043 111.242 -0.519808 111.256C-0.450704 111.558 -0.132826 111.832 0.429219 111.832C41.6366 111.832 82.8395 111.822 124.038 111.803Z" fill="#FEF8EE"/>
<path d="M124.038 130.923H137.223C182.582 130.923 227.942 130.923 273.302 130.923H350.063C351.284 130.923 351.284 129.581 350.063 129.581H213.288H119.739C105.344 129.559 90.9461 129.544 76.5449 129.538H0.447647C-0.197323 129.538 -0.519808 129.893 -0.519808 130.248C-0.522013 130.276 -0.522013 130.305 -0.519808 130.334C-0.522043 130.348 -0.522043 130.363 -0.519808 130.377C-0.450704 130.684 -0.132826 130.957 0.429219 130.957C41.6366 130.957 82.8395 130.946 124.038 130.923Z" fill="#FEF8EE"/>
<path d="M124.038 150.034H137.223C182.582 150.034 227.942 150.034 273.302 150.034H350.063C351.284 150.034 351.284 148.692 350.063 148.692H213.288H119.739C105.344 148.67 90.9461 148.655 76.5449 148.649H0.447647C-0.197323 148.649 -0.519808 149.004 -0.519808 149.358C-0.522013 149.387 -0.522013 149.416 -0.519808 149.445C-0.522043 149.459 -0.522043 149.473 -0.519808 149.488C-0.450704 149.795 -0.132826 150.063 0.429219 150.063C41.6366 150.073 82.8395 150.063 124.038 150.034Z" fill="#FEF8EE"/>
<path d="M124.038 169.174H137.223C182.582 169.174 227.942 169.174 273.302 169.174H350.063C351.284 169.174 351.284 167.837 350.063 167.837H213.288C182.102 167.837 150.919 167.837 119.739 167.837C105.344 167.792 90.9461 167.77 76.5449 167.77H0.447647C-0.197323 167.77 -0.519808 168.125 -0.519808 168.479C-0.522013 168.508 -0.522013 168.537 -0.519808 168.566C-0.522043 168.58 -0.522043 168.595 -0.519808 168.609C-0.450704 168.916 -0.132826 169.184 0.429219 169.184C41.6366 169.2 82.8395 169.197 124.038 169.174Z" fill="#FEF8EE"/>
<path d="M124.038 188.3H137.223C182.583 188.3 227.943 188.3 273.302 188.3H350.063C351.284 188.3 351.284 186.963 350.063 186.963H213.288C182.102 186.963 150.919 186.963 119.74 186.963C105.345 186.934 90.9464 186.919 76.5451 186.919H0.447899C-0.197071 186.919 -0.519556 187.274 -0.519556 187.624C-0.522127 187.654 -0.522127 187.685 -0.519556 187.715C-0.521791 187.729 -0.521791 187.744 -0.519556 187.758C-0.450452 188.06 -0.132574 188.333 0.429471 188.333C41.6369 188.33 82.8397 188.319 124.038 188.3Z" fill="#FEF8EE"/>
</g>
</g>
</svg>
