<svg width="21" height="22" viewBox="0 0 21 22" fill="none" xmlns="http://www.w3.org/2000/svg">
<path d="M5.5 14C5.5 17.2998 5.5 18.9497 6.52513 19.9749C7.55025 21 9.20017 21 12.5 21C15.7998 21 17.4497 21 18.4749 19.9749C19.5 18.9497 19.5 17.2998 19.5 14C19.5 10.7002 19.5 9.05025 18.4749 8.02513C17.4497 7 15.7998 7 12.5 7C9.20017 7 7.55025 7 6.52513 8.02513C5.5 9.05025 5.5 10.7002 5.5 14Z" stroke="white" stroke-width="1.5" stroke-linecap="round" stroke-linejoin="round"/>
<path d="M8.07987 1L9.42556 2.11013C10.1419 2.70104 10.5 2.99649 10.5 3.36364L9.5 3.36364C5.72876 3.36364 3.84315 3.36364 2.67157 4.53521C1.5 5.70678 1.5 7.5924 1.5 11.3636V12" stroke="white" stroke-width="1.5" stroke-linecap="round" stroke-linejoin="round"/>
</svg>
