<svg width="17" height="16" viewBox="0 0 17 16" fill="none" xmlns="http://www.w3.org/2000/svg">
<rect x="0.5" width="16" height="16" rx="8" fill="#F3A41D"/>
<path d="M10.932 11.772C10.932 11.86 10.92 11.92 10.896 11.952C10.872 11.984 10.816 12 10.728 12H6.228C5.868 12 5.612 11.932 5.46 11.796C5.308 11.652 5.232 11.388 5.232 11.004C5.232 10.74 5.32 10.432 5.496 10.08C5.68 9.728 5.948 9.372 6.3 9.012C6.628 8.676 6.964 8.388 7.308 8.148C7.652 7.9 7.948 7.7 8.196 7.548C8.444 7.396 8.652 7.26 8.82 7.14C8.988 7.012 9.12 6.892 9.216 6.78C9.32 6.66 9.392 6.544 9.432 6.432C9.472 6.312 9.492 6.184 9.492 6.048C9.492 5.76 9.376 5.524 9.144 5.34C8.912 5.156 8.556 5.064 8.076 5.064C7.772 5.064 7.46 5.116 7.14 5.22C6.828 5.324 6.528 5.48 6.24 5.688C6.176 5.728 6.116 5.752 6.06 5.76C6.012 5.76 5.968 5.728 5.928 5.664L5.46 5.004C5.388 4.892 5.404 4.796 5.508 4.716C5.892 4.42 6.312 4.196 6.768 4.044C7.224 3.884 7.692 3.804 8.172 3.804C8.548 3.804 8.9 3.848 9.228 3.936C9.564 4.024 9.856 4.16 10.104 4.344C10.36 4.52 10.56 4.744 10.704 5.016C10.856 5.288 10.932 5.608 10.932 5.976C10.932 6.272 10.884 6.54 10.788 6.78C10.7 7.02 10.568 7.244 10.392 7.452C10.224 7.652 10.016 7.844 9.768 8.028C9.528 8.204 9.26 8.376 8.964 8.544C8.74 8.672 8.516 8.816 8.292 8.976C8.068 9.136 7.856 9.312 7.656 9.504C7.464 9.696 7.288 9.9 7.128 10.116C6.976 10.332 6.856 10.56 6.768 10.8H10.728C10.816 10.8 10.872 10.816 10.896 10.848C10.92 10.88 10.932 10.94 10.932 11.028V11.772Z" fill="white"/>
</svg>
