<svg width="34" height="28" viewBox="0 0 34 28" fill="none" xmlns="http://www.w3.org/2000/svg">
<rect x="0.64209" y="4.24023" width="32.7158" height="22.7848" rx="2.5" fill="#F3A41D" stroke="#DD951A"/>
<path d="M5.0542 0.976562C6.22171 0.966231 7.67051 0.999282 9.20752 1.14355L9.87158 1.21289C11.8299 1.43578 13.6961 1.95543 15.0776 2.42285C15.7667 2.65601 16.3321 2.87494 16.7241 3.03516C16.8463 3.08509 16.9517 3.12989 17.0386 3.16699V25.0615C17.0021 25.0492 16.9643 25.0365 16.9253 25.0234C16.4402 24.8604 15.7618 24.6387 14.9907 24.4014C13.6472 23.9878 12.0014 23.5219 10.5942 23.249L10.0073 23.1445C8.99156 22.9816 7.79441 22.9144 6.65576 22.8955L5.54541 22.8906C4.05783 22.9025 2.81795 21.7281 2.81787 20.2793V3.32715C2.81788 2.11049 3.68093 1.11878 4.82178 0.990234L5.0542 0.976562Z" fill="#FBE3B9" stroke="#DD951A" stroke-linejoin="round"/>
<path d="M28.939 0.976562C27.7715 0.966231 26.3227 0.999282 24.7856 1.14355L24.1216 1.21289C22.1633 1.43578 20.2971 1.95543 18.9155 2.42285C18.2264 2.65601 17.6611 2.87494 17.269 3.03516C17.1469 3.08509 17.0414 3.12989 16.9546 3.16699V25.0615C16.991 25.0492 17.0289 25.0365 17.0679 25.0234C17.553 24.8604 18.2313 24.6387 19.0024 24.4014C20.346 23.9878 21.9918 23.5219 23.3989 23.249L23.9858 23.1445C25.0016 22.9816 26.1988 22.9144 27.3374 22.8955L28.4478 22.8906C29.9353 22.9025 31.1752 21.7281 31.1753 20.2793V3.32715C31.1753 2.11049 30.3122 1.11878 29.1714 0.990234L28.939 0.976562Z" fill="#FBE3B9" stroke="#DD951A" stroke-linejoin="round"/>
<path d="M21.1616 8.90435C21.1616 8.90435 22.0391 8.48085 23.2664 8.16413C24.4938 7.8474 25.5231 7.76758 25.5231 7.76758" stroke="#DD951A" stroke-linecap="round" stroke-linejoin="round"/>
<path d="M12.1636 8.90435C12.1636 8.90435 11.2861 8.48085 10.0587 8.16413C8.83143 7.8474 7.80208 7.76758 7.80208 7.76758" stroke="#DD951A" stroke-linecap="round" stroke-linejoin="round"/>
<path d="M21.1616 14.0626C21.1616 14.0626 22.0391 13.6391 23.2664 13.3223C24.4938 13.0056 25.5231 12.9258 25.5231 12.9258" stroke="#DD951A" stroke-linecap="round" stroke-linejoin="round"/>
<path d="M12.1636 14.0626C12.1636 14.0626 11.2861 13.6391 10.0587 13.3223C8.83143 13.0056 7.80208 12.9258 7.80208 12.9258" stroke="#DD951A" stroke-linecap="round" stroke-linejoin="round"/>
</svg>
