<svg width="42" height="42" viewBox="0 0 42 42" fill="none" xmlns="http://www.w3.org/2000/svg">
<rect x="18.1968" y="1.16871" width="24" height="34" rx="3.5" transform="rotate(17.5845 18.1968 1.16871)" fill="#F7C268"/>
<rect x="18.1968" y="1.16871" width="24" height="34" rx="3.5" transform="rotate(17.5845 18.1968 1.16871)" stroke="#DD951A"/>
<path d="M25.0477 15.3257C25.6212 14.7446 26.6118 15.0585 26.7459 15.8639L27.0832 17.8899C27.1357 18.2052 27.3358 18.4764 27.6215 18.6197L29.4577 19.54C30.1876 19.9059 30.1951 20.945 29.4706 21.3214L27.648 22.2683C27.3643 22.4156 27.1682 22.6897 27.1203 23.0057L26.8124 25.0364C26.69 25.8437 25.7041 26.172 25.1222 25.5992L23.6585 24.1584C23.4307 23.9341 23.1094 23.8323 22.794 23.8844L20.7676 24.2191C19.962 24.3522 19.3451 23.5159 19.71 22.7855L20.628 20.9482C20.7709 20.6623 20.7684 20.3252 20.6214 20.0414L19.6769 18.2176C19.3014 17.4925 19.9061 16.6474 20.7135 16.7688L22.7446 17.0741C23.0607 17.1216 23.3805 17.0151 23.605 16.7876L25.0477 15.3257Z" fill="#FEF8EE"/>
<rect x="0.796997" y="5.04102" width="24" height="34" rx="3.5" fill="#F7C268"/>
<rect x="0.796997" y="5.04102" width="24" height="34" rx="3.5" stroke="#DD951A"/>
<path d="M11.6046 16.4661C11.9757 15.7388 13.0149 15.7388 13.386 16.4661L14.3196 18.2955C14.4649 18.5802 14.7376 18.7783 15.0533 18.8285L17.0817 19.1511C17.888 19.2794 18.2091 20.2677 17.6322 20.8454L16.1808 22.2986C15.9549 22.5248 15.8508 22.8453 15.9006 23.1611L16.2206 25.1899C16.3478 25.9964 15.5071 26.6072 14.7793 26.237L12.9487 25.3057C12.6638 25.1608 12.3268 25.1608 12.0419 25.3057L10.2113 26.237C9.48353 26.6072 8.64284 25.9964 8.77005 25.1899L9.09004 23.1611C9.13985 22.8453 9.0357 22.5248 8.80982 22.2986L7.35843 20.8454C6.78146 20.2677 7.10257 19.2794 7.90892 19.1511L9.93732 18.8285C10.253 18.7783 10.5257 18.5802 10.671 18.2955L11.6046 16.4661Z" fill="#FEF8EE"/>
</svg>
