<svg width="17" height="16" viewBox="0 0 17 16" fill="none" xmlns="http://www.w3.org/2000/svg">
<rect x="0.5" width="16" height="16" rx="8" fill="#F3A41D"/>
<path d="M10.584 11.772C10.584 11.86 10.572 11.92 10.548 11.952C10.524 11.984 10.468 12 10.38 12H6.204C6.116 12 6.06 11.984 6.036 11.952C6.012 11.92 6 11.86 6 11.772V11.028C6 10.94 6.012 10.88 6.036 10.848C6.06 10.816 6.116 10.8 6.204 10.8H7.56V5.268L6.228 5.484C6.14 5.5 6.084 5.496 6.06 5.472C6.036 5.44 6.024 5.388 6.024 5.316V4.632C6.024 4.56 6.036 4.504 6.06 4.464C6.084 4.424 6.14 4.388 6.228 4.356L8.112 3.828C8.328 3.764 8.52 3.764 8.688 3.828C8.864 3.884 8.952 4.032 8.952 4.272V10.8H10.38C10.468 10.8 10.524 10.816 10.548 10.848C10.572 10.88 10.584 10.94 10.584 11.028V11.772Z" fill="white"/>
</svg>
