<svg width="17" height="16" viewBox="0 0 17 16" fill="none" xmlns="http://www.w3.org/2000/svg">
<rect x="0.5" width="16" height="16" rx="8" fill="#F3A41D"/>
<path d="M9.42 7.752C9.884 7.84 10.248 8.056 10.512 8.4C10.784 8.744 10.92 9.148 10.92 9.612C10.92 9.98 10.848 10.32 10.704 10.632C10.56 10.936 10.356 11.2 10.092 11.424C9.828 11.648 9.508 11.824 9.132 11.952C8.764 12.072 8.352 12.132 7.896 12.132C7.384 12.132 6.888 12.076 6.408 11.964C5.936 11.844 5.508 11.628 5.124 11.316C5.044 11.244 5.036 11.156 5.1 11.052L5.544 10.356C5.624 10.228 5.74 10.212 5.892 10.308C6.188 10.516 6.496 10.664 6.816 10.752C7.144 10.84 7.464 10.884 7.776 10.884C8.352 10.884 8.776 10.756 9.048 10.5C9.328 10.236 9.468 9.888 9.468 9.456C9.468 9.312 9.436 9.172 9.372 9.036C9.316 8.892 9.224 8.768 9.096 8.664C8.976 8.552 8.816 8.464 8.616 8.4C8.424 8.336 8.196 8.304 7.932 8.304H7.596C7.46 8.304 7.364 8.284 7.308 8.244C7.252 8.196 7.224 8.096 7.224 7.944V7.548C7.224 7.396 7.248 7.292 7.296 7.236C7.344 7.18 7.424 7.152 7.536 7.152H7.86C8.316 7.152 8.664 7.052 8.904 6.852C9.144 6.652 9.264 6.384 9.264 6.048C9.264 5.872 9.224 5.72 9.144 5.592C9.064 5.464 8.96 5.36 8.832 5.28C8.704 5.2 8.556 5.144 8.388 5.112C8.228 5.072 8.064 5.052 7.896 5.052C7.576 5.052 7.252 5.1 6.924 5.196C6.596 5.292 6.308 5.428 6.06 5.604C5.908 5.7 5.792 5.684 5.712 5.556L5.304 4.92C5.264 4.864 5.244 4.816 5.244 4.776C5.244 4.736 5.272 4.696 5.328 4.656C5.496 4.512 5.688 4.388 5.904 4.284C6.12 4.172 6.344 4.08 6.576 4.008C6.816 3.936 7.056 3.884 7.296 3.852C7.544 3.812 7.784 3.792 8.016 3.792C8.376 3.792 8.716 3.836 9.036 3.924C9.364 4.004 9.648 4.132 9.888 4.308C10.136 4.476 10.332 4.692 10.476 4.956C10.62 5.212 10.692 5.516 10.692 5.868C10.692 6.284 10.572 6.66 10.332 6.996C10.1 7.324 9.796 7.556 9.42 7.692V7.752Z" fill="white"/>
</svg>
