<svg width="258" height="161" viewBox="0 0 258 161" fill="none" xmlns="http://www.w3.org/2000/svg">
<path d="M0 99.5371C0 65.6083 27.5048 38.1035 61.4336 38.1035V38.1035C95.3624 38.1035 122.867 65.6083 122.867 99.5371V160.971H61.4336C27.5048 160.971 0 133.466 0 99.5371V99.5371Z" fill="#FEF7F5"/>
<path d="M257.182 80.4854C257.182 36.0345 221.147 0 176.696 0V0C132.245 0 96.2109 36.0345 96.2109 80.4854V160.971H176.696C221.147 160.971 257.182 124.936 257.182 80.4854V80.4854Z" fill="#FEF7F5"/>
<path d="M181.507 37.4854L182.902 41.2548L186.671 42.6496L182.902 44.0445L181.507 47.8139L180.112 44.0445L176.343 42.6496L180.112 41.2548L181.507 37.4854Z" fill="#F3A41D"/>
<path d="M26.884 109.233L28.2788 113.003L32.0483 114.398L28.2788 115.793L26.884 119.562L25.4892 115.793L21.7197 114.398L25.4892 113.003L26.884 109.233Z" fill="#F37142"/>
<circle cx="180.801" cy="109.895" r="5.16429" fill="#F37142"/>
<circle cx="15.9839" cy="26.7104" r="3.44286" fill="#F3A41D"/>
</svg>
