<svg width="53" height="40" viewBox="0 0 53 40" fill="none" xmlns="http://www.w3.org/2000/svg">
<path d="M46.88 10.403L46.75 10.9912L46.5789 11.7815L42.8068 29.0508L42.642 29.8043L42.6229 29.8954L15.5955 34.9749L15.5196 34.8693L15.0574 34.198L5.03877 19.5983L4.56287 18.9069L3.82854 17.8395L3.59683 17.5008L4.25338 17.9087L5.45572 18.6613L6.09341 19.0566L18.2506 26.6283L23.5442 10.4242L23.9504 9.18467L24.1833 8.46047L24.1985 8.41873L24.2817 8.16009L24.4903 8.42869L24.9936 9.07286L28.3109 13.3128L31.8461 17.8359L33.9887 20.5761L36.1002 23.2736L45.7931 11.7024L46.3417 11.0452L46.88 10.403Z" fill="#FDBE11"/>
<g style="mix-blend-mode:multiply" opacity="0.67">
<path d="M42.8088 29.0441L42.6414 29.8013L42.6223 29.8924L15.6076 34.9695L15.5343 34.8602L15.0784 34.1877C15.2228 34.0868 15.3872 34.0172 15.5607 33.9836L42.1585 28.9848C42.3829 28.9426 42.6145 28.9619 42.8279 29.0405L42.8088 29.0441Z" fill="#F99B1C"/>
</g>
<g style="mix-blend-mode:soft-light" opacity="0.53">
<path d="M28.3109 13.3129L26.7259 21.8666L24.7996 32.2504L24.634 33.1401L24.611 33.2806L19.1151 34.3134L19.1413 34.1724L19.3069 33.2827L23.5442 10.4242L23.9504 9.18468L24.1833 8.46048L24.1985 8.41874L24.2817 8.1601L24.4903 8.4287L24.9936 9.07287L28.3109 13.3129Z" fill="white"/>
</g>
<g style="mix-blend-mode:soft-light" opacity="0.53">
<path d="M33.9888 20.5761L32.0775 30.8825L31.9152 31.7717L31.889 31.9127L29.1426 32.4288L29.1688 32.2878L29.3312 31.3986L31.8462 17.8358L33.9888 20.5761Z" fill="white"/>
</g>
<path d="M43.9324 31.0781C44.0895 31.9137 43.6156 32.7059 42.871 32.8458L16.2636 37.8464C15.5222 37.9858 14.7931 37.4197 14.636 36.5841C14.5533 36.2424 14.5966 35.8821 14.7583 35.5675C14.92 35.2529 15.1896 35.0043 15.519 34.8661C15.5774 34.8502 15.637 34.839 15.6972 34.8326L42.3173 29.8296C42.4253 29.8104 42.5353 29.806 42.6443 29.8168C42.968 29.8644 43.2673 30.0123 43.4989 30.2391C43.7304 30.4659 43.8823 30.7597 43.9324 31.0781Z" fill="#FFBB33"/>
<g style="mix-blend-mode:soft-light" opacity="0.51">
<path d="M31.0623 31.9319L31.0361 32.0729L30.46 35.1783L24.9673 36.2106L25.5434 33.1052L25.5697 32.9642L31.0623 31.9319Z" fill="white"/>
</g>
<g style="mix-blend-mode:soft-light" opacity="0.51">
<path d="M38.3403 30.5643L38.3141 30.7053L37.738 33.8107L34.9916 34.3269L35.5677 31.2215L35.5939 31.0804L38.3403 30.5643Z" fill="white"/>
</g>
<path d="M26.422 6.61081C26.432 6.66402 26.4414 6.71409 26.4508 6.76416C26.5055 7.25182 26.3917 7.7444 26.1279 8.16254C25.864 8.58068 25.4653 8.90003 24.9961 9.06912C24.884 9.10969 24.7687 9.14112 24.6514 9.16308C24.5513 9.18251 24.4499 9.19398 24.3481 9.19739C24.2151 9.20679 24.0814 9.20147 23.9498 9.18153C23.5149 9.12633 23.1073 8.94502 22.7787 8.66063C22.4501 8.37623 22.2154 8.00159 22.1044 7.58428C22.0949 7.5342 22.0855 7.48413 22.0755 7.43093C21.978 6.91396 22.074 6.37857 22.3458 5.92367C22.6176 5.46878 23.0469 5.12512 23.5543 4.95619C23.6511 4.92496 23.7499 4.89991 23.8499 4.88119C24.4258 4.77553 25.0193 4.89806 25.5011 5.22207C25.983 5.54607 26.314 6.04527 26.422 6.61081Z" fill="#FDBE11"/>
<path d="M26.4509 6.76433C26.5056 7.25199 26.3918 7.74457 26.1279 8.16271C25.864 8.58085 25.4654 8.9002 24.9962 9.06929C24.884 9.10986 24.7687 9.14129 24.6514 9.16325C24.5514 9.18268 24.45 9.19415 24.3482 9.19756C24.2151 9.20696 24.0815 9.20164 23.9498 9.1817C23.6918 9.18079 23.4371 9.12761 23.2015 9.02548C22.9659 8.92334 22.7545 8.77444 22.5804 8.58803C22.4063 8.40162 22.2732 8.1817 22.1895 7.94194C22.1058 7.70218 22.0732 7.44773 22.0937 7.1944C22.2751 7.58621 22.5707 7.91556 22.9432 8.14084C23.3157 8.36611 23.7484 8.47719 24.1865 8.46003C24.1941 8.46027 24.2017 8.45884 24.2088 8.45584C24.3043 8.45471 24.3995 8.44548 24.4935 8.42825L24.5126 8.42466C24.9986 8.33216 25.4403 8.08277 25.7677 7.71603C26.095 7.34929 26.2894 6.88618 26.3198 6.40015C26.3729 6.51799 26.4168 6.63975 26.4509 6.76433Z" fill="#F99B1C"/>
<g style="mix-blend-mode:soft-light">
<path d="M24.9402 6.21229C24.9463 6.23596 24.9508 6.26001 24.9538 6.28427C24.9885 6.55072 24.9182 6.82078 24.7573 7.03895C24.5964 7.25711 24.3571 7.40681 24.0886 7.45728C23.8201 7.50774 23.5428 7.45514 23.3136 7.31028C23.0845 7.16542 22.9209 6.9393 22.8566 6.67841C22.8505 6.65474 22.846 6.6307 22.8431 6.60643C22.8088 6.46729 22.8037 6.32256 22.8282 6.18108C22.8526 6.03959 22.9061 5.90432 22.9853 5.78354C23.0645 5.66276 23.1678 5.559 23.2889 5.47861C23.4099 5.39821 23.5463 5.34286 23.6895 5.31595C23.8327 5.28904 23.9798 5.29112 24.1217 5.32208C24.2637 5.35303 24.3977 5.41221 24.5153 5.49599C24.633 5.57977 24.7319 5.68639 24.8061 5.80935C24.8802 5.9323 24.928 6.069 24.9466 6.2111L24.9402 6.21229Z" fill="white"/>
</g>
<path d="M48.5938 9.19641C48.6032 9.24648 48.6126 9.29655 48.622 9.34662C48.6858 9.89479 48.5353 10.4476 48.2012 10.893C47.8671 11.3384 47.3743 11.6432 46.8226 11.7455C46.7451 11.765 46.6664 11.7798 46.5871 11.7898C46.3221 11.8121 46.0556 11.7853 45.8013 11.7107C45.4326 11.6086 45.0981 11.4133 44.8308 11.1442C44.5635 10.875 44.3727 10.5413 44.2773 10.1761C44.2679 10.1261 44.2585 10.076 44.2491 10.0259C44.1837 9.7398 44.1778 9.44331 44.2315 9.15417C44.2853 8.86502 44.3977 8.58918 44.562 8.34315C44.7264 8.09713 44.9392 7.88598 45.1879 7.72235C45.4365 7.55872 45.7158 7.44597 46.0091 7.39085C46.3024 7.33573 46.6036 7.33938 46.8947 7.40157C47.1858 7.46377 47.4608 7.58323 47.7032 7.75281C47.9456 7.92238 48.1505 8.13859 48.3056 8.38849C48.4607 8.63838 48.5627 8.91681 48.6057 9.20713L48.5938 9.19641Z" fill="#FDBE11"/>
<path d="M48.6157 9.34786C48.6794 9.89603 48.529 10.4488 48.1949 10.8942C47.8608 11.3397 47.3679 11.6444 46.8163 11.7468C46.7387 11.7663 46.6601 11.7811 46.5808 11.791C46.3158 11.8134 46.0492 11.7865 45.7949 11.7119C45.3395 11.6417 44.9287 11.4049 44.6444 11.0488C44.3602 10.6927 44.2232 10.2434 44.2609 9.79045C44.4417 10.1808 44.7359 10.5093 45.1064 10.7347C45.477 10.9602 45.9075 11.0726 46.3441 11.0579C46.4525 11.0552 46.5605 11.0435 46.6671 11.0231L46.7403 11.0093C47.211 10.9053 47.6352 10.6528 47.9483 10.2904C48.2615 9.92796 48.4464 9.47544 48.4749 9.00171C48.5318 9.11284 48.579 9.22865 48.6157 9.34786Z" fill="#F99B1C"/>
<g style="mix-blend-mode:soft-light">
<path d="M47.1083 8.79504C47.1146 8.81976 47.1193 8.84485 47.1224 8.87016C47.1572 9.1366 47.0869 9.40666 46.926 9.62483C46.7651 9.84299 46.5258 9.9927 46.2572 10.0432C45.9887 10.0936 45.7114 10.041 45.4823 9.89616C45.2531 9.7513 45.0896 9.52519 45.0253 9.26429C45.0205 9.23926 45.0158 9.21422 45.0111 9.18918C44.9762 8.92192 45.0467 8.65102 45.2081 8.43218C45.3695 8.21333 45.6096 8.06316 45.8789 8.01254C46.1482 7.96192 46.4264 8.01469 46.6563 8.16001C46.8861 8.30533 47.0501 8.53215 47.1146 8.79385L47.1083 8.79504Z" fill="white"/>
</g>
<path d="M6.7591 17.0588C6.76852 17.1089 6.77793 17.1589 6.78734 17.209C6.84662 17.7555 6.69401 18.3052 6.36002 18.7481C6.02603 19.1909 5.53528 19.4943 4.98596 19.5976C4.43663 19.7008 3.86922 19.5963 3.39723 19.3049C2.92524 19.0135 2.58348 18.5567 2.4403 18.026C2.43089 17.9759 2.42148 17.9258 2.41207 17.8758C2.3467 17.5897 2.34072 17.2932 2.39449 17.004C2.44826 16.7149 2.56067 16.439 2.725 16.193C2.88932 15.947 3.10217 15.7358 3.35082 15.5722C3.59947 15.4086 3.8788 15.2958 4.17207 15.2407C4.46535 15.1856 4.76655 15.1892 5.05763 15.2514C5.34872 15.3136 5.62371 15.4331 5.86614 15.6027C6.10858 15.7722 6.31346 15.9884 6.46854 16.2383C6.62361 16.4882 6.7257 16.7667 6.76866 17.057L6.7591 17.0588Z" fill="#FDBE11"/>
<path d="M6.78092 17.2103C6.86182 17.5158 6.87424 17.8353 6.81731 18.1468C6.76038 18.4583 6.63547 18.7544 6.45121 19.0144C6.26696 19.2744 6.02776 19.4923 5.75016 19.6529C5.47257 19.8135 5.16321 19.9131 4.8435 19.9446C4.52378 19.9762 4.20133 19.939 3.89847 19.8357C3.59562 19.7324 3.31958 19.5654 3.08945 19.3462C2.85932 19.1271 2.68061 18.861 2.56567 18.5665C2.45073 18.272 2.40231 17.956 2.42376 17.6404C2.62779 18.0828 2.97685 18.4443 3.41526 18.6671C3.85367 18.89 4.35617 18.9614 4.84256 18.87C5.32895 18.7786 5.77122 18.5296 6.0988 18.1628C6.42637 17.796 6.62038 17.3324 6.64987 16.8461C6.7045 16.9634 6.74835 17.0853 6.78092 17.2103Z" fill="#F99B1C"/>
<g style="mix-blend-mode:soft-light">
<path d="M5.27357 16.6576C5.27985 16.6823 5.28457 16.7074 5.28768 16.7327C5.32246 16.9992 5.25217 17.2692 5.09126 17.4874C4.93035 17.7055 4.69105 17.8552 4.42253 17.9057C4.15401 17.9562 3.87669 17.9036 3.64755 17.7587C3.41841 17.6138 3.25487 17.3877 3.19054 17.1268C3.18583 17.1018 3.18113 17.0768 3.17642 17.0517C3.14151 16.7845 3.21201 16.5136 3.3734 16.2947C3.5348 16.0759 3.77485 15.9257 4.04419 15.8751C4.31354 15.8245 4.59172 15.8772 4.82156 16.0226C5.0514 16.1679 5.21543 16.3947 5.27994 16.6564L5.27357 16.6576Z" fill="white"/>
</g>
<g style="mix-blend-mode:multiply" opacity="0.55">
<path d="M48.5937 9.19636C48.6032 9.24644 48.6126 9.29651 48.622 9.34658C48.6857 9.89475 48.5353 10.4475 48.2012 10.893C47.867 11.3384 47.3742 11.6431 46.8225 11.7455C46.745 11.765 46.6664 11.7798 46.587 11.7898L42.8056 29.0446L42.6382 29.8018C42.9641 29.8497 43.2653 29.9993 43.4975 30.2285C43.7297 30.4578 43.8808 30.7547 43.9286 31.0757C44.0856 31.9113 43.6118 32.7035 42.8672 32.8434L29.2691 35.399L23.5474 4.95433C23.6442 4.9231 23.7429 4.89804 23.843 4.87933C24.4206 4.77077 25.0169 4.89209 25.501 5.21664C25.9852 5.54118 26.3176 6.04242 26.4252 6.61028C26.4352 6.66349 26.4446 6.71356 26.454 6.76363C26.5087 7.25129 26.3949 7.74387 26.131 8.16201C25.8671 8.58015 25.4685 8.8995 24.9993 9.06859L28.316 13.3055L31.8507 17.8254L33.9933 20.5656L36.1016 23.2637L45.7875 11.6905C45.4189 11.5885 45.0844 11.3932 44.8171 11.124C44.5498 10.8548 44.359 10.5211 44.2636 10.156C44.2542 10.1059 44.2448 10.0558 44.2354 10.0058C44.17 9.71965 44.164 9.42315 44.2178 9.13401C44.2716 8.84487 44.384 8.56903 44.5483 8.323C44.7126 8.07698 44.9255 7.86583 45.1741 7.7022C45.4228 7.53857 45.7021 7.42582 45.9954 7.3707C46.2887 7.31558 46.5899 7.31923 46.8809 7.38142C47.172 7.44361 47.447 7.56308 47.6895 7.73265C47.9319 7.90223 48.1368 8.11844 48.2919 8.36833C48.4469 8.61822 48.549 8.89666 48.592 9.18698L48.5937 9.19636Z" fill="#F99B1C"/>
</g>
</svg>
