<svg width="24" height="24" viewBox="0 0 24 24" fill="none" xmlns="http://www.w3.org/2000/svg">
<path opacity="0.4" d="M21 7V17C21 20 19.5 22 16 22H8C4.5 22 3 20 3 17V7C3 4 4.5 2 8 2H16C19.5 2 21 4 21 7Z" fill="#292D32"/>
<path d="M18.5 9.25H16.5C14.98 9.25 13.75 8.02 13.75 6.5V4.5C13.75 4.09 14.09 3.75 14.5 3.75C14.91 3.75 15.25 4.09 15.25 4.5V6.5C15.25 7.19 15.81 7.75 16.5 7.75H18.5C18.91 7.75 19.25 8.09 19.25 8.5C19.25 8.91 18.91 9.25 18.5 9.25Z" fill="#292D32"/>
<path d="M5.61915 17.8989V13.3652H7.31928C7.66757 13.3652 7.95978 13.4302 8.19591 13.56C8.43352 13.6899 8.61283 13.8685 8.73385 14.0958C8.85634 14.3216 8.91759 14.5784 8.91759 14.8661C8.91759 15.1569 8.85634 15.4151 8.73385 15.6409C8.61136 15.8667 8.43057 16.0446 8.19149 16.1744C7.95241 16.3028 7.65798 16.367 7.30821 16.367H6.18143V15.6919H7.19753C7.40119 15.6919 7.56796 15.6564 7.69783 15.5856C7.8277 15.5148 7.92363 15.4173 7.98561 15.2934C8.04907 15.1694 8.0808 15.027 8.0808 14.8661C8.0808 14.7053 8.04907 14.5636 7.98561 14.4411C7.92363 14.3186 7.82696 14.2234 7.69561 14.1555C7.56574 14.0862 7.39824 14.0515 7.1931 14.0515H6.44044V17.8989H5.61915Z" fill="#292D32"/>
<path d="M11.1673 17.8989H9.63096V13.3652H11.1983C11.6484 13.3652 12.0351 13.456 12.3583 13.6375C12.6829 13.8176 12.9323 14.0766 13.1065 14.4145C13.2806 14.7525 13.3677 15.1569 13.3677 15.6277C13.3677 16.0999 13.2799 16.5058 13.1043 16.8452C12.9301 17.1846 12.6785 17.4451 12.3494 17.6266C12.0218 17.8082 11.6277 17.8989 11.1673 17.8989ZM10.4522 17.1883H11.1274C11.4433 17.1883 11.7067 17.1308 11.9177 17.0157C12.1288 16.8991 12.2874 16.7257 12.3937 16.4954C12.4999 16.2637 12.5531 15.9745 12.5531 15.6277C12.5531 15.2808 12.4999 14.9931 12.3937 14.7643C12.2874 14.5341 12.1302 14.3621 11.9222 14.2485C11.7155 14.1334 11.4587 14.0758 11.1518 14.0758H10.4522V17.1883Z" fill="#292D32"/>
<path d="M14.148 17.8989V13.3652H17.0524V14.0537H14.9693V15.2845H16.8532V15.973H14.9693V17.8989H14.148Z" fill="#292D32"/>
</svg>
