<svg width="24" height="24" viewBox="0 0 24 24" fill="none" xmlns="http://www.w3.org/2000/svg">
<path opacity="0.4" d="M2.75 18.6508C2.34 18.6508 2 18.3108 2 17.9008V12.2008C1.95 9.49078 2.96 6.93078 4.84 5.01078C6.72 3.10078 9.24 2.05078 11.95 2.05078C17.49 2.05078 22 6.56078 22 12.1008V17.8008C22 18.2108 21.66 18.5508 21.25 18.5508C20.84 18.5508 20.5 18.2108 20.5 17.8008V12.1008C20.5 7.39078 16.67 3.55078 11.95 3.55078C9.64 3.55078 7.5 4.44078 5.91 6.06078C4.31 7.69078 3.46 9.86078 3.5 12.1808V17.8908C3.5 18.3108 3.17 18.6508 2.75 18.6508Z" fill="#292D32"/>
<path d="M5.94 12.4492H5.81C3.71 12.4492 2 14.1592 2 16.2592V18.1392C2 20.2392 3.71 21.9492 5.81 21.9492H5.94C8.04 21.9492 9.75 20.2392 9.75 18.1392V16.2592C9.75 14.1592 8.04 12.4492 5.94 12.4492Z" fill="#292D32"/>
<path d="M18.19 12.4492H18.06C15.96 12.4492 14.25 14.1592 14.25 16.2592V18.1392C14.25 20.2392 15.96 21.9492 18.06 21.9492H18.19C20.29 21.9492 22 20.2392 22 18.1392V16.2592C22 14.1592 20.29 12.4492 18.19 12.4492Z" fill="#292D32"/>
</svg>
