<svg width="20" height="22" viewBox="0 0 20 22" fill="none" xmlns="http://www.w3.org/2000/svg">
<rect width="20" height="22" rx="4" fill="#F37142" fill-opacity="0.4"/>
<path d="M15.9977 8.68205C15.9977 8.69909 15.8629 10.5784 15.6237 12.4369C15.1422 16.1576 14.6796 16.8011 13.8264 16.8416C13.6381 16.8502 13.3964 16.8523 13.1313 16.8523C12.1317 16.8523 10.802 16.8035 10.7325 16.8011C10.2835 16.7841 9.93484 16.4367 9.95344 16.0255C9.97203 15.6142 10.3556 15.2945 10.7999 15.3116C10.8182 15.3116 12.4504 15.371 13.4059 15.3604C13.7383 14.5442 14.1056 11.8741 14.3146 9.37867H10.4649C9.96506 12.1684 8.72133 15.6611 5.64572 17.2295C5.52042 17.2934 5.38559 17.323 5.25075 17.323C4.96481 17.323 4.68817 17.1845 4.53915 16.9394C4.32086 16.5793 4.46244 16.1254 4.85532 15.9251C7.28 14.6893 8.34473 11.8082 8.80967 9.37888H4.81347C4.36247 9.37888 3.99982 9.04453 3.99982 8.63303C3.99982 8.22175 4.36247 7.88718 4.81347 7.88718H9.03517C9.19325 6.48712 9.16535 5.4749 9.16535 5.44719C9.15141 5.03591 9.50244 4.69069 9.95111 4.6779C10.3975 4.66938 10.7764 4.9869 10.7903 5.39818C10.795 5.51752 10.8229 6.50843 10.6764 7.88718H15.1864C15.4121 7.88718 15.626 7.97242 15.7818 8.12372C15.935 8.27289 16.014 8.47534 15.9977 8.68205Z" fill="#F37142"/>
</svg>
