<svg width="72" height="73" viewBox="0 0 72 73" fill="none" xmlns="http://www.w3.org/2000/svg">
<rect y="0.5" width="72" height="72" rx="36" fill="#FBE3B9"/>
<path d="M35.999 18.5835C45.894 18.5837 53.915 26.6055 53.915 36.5005C53.9149 46.3953 45.8939 54.4163 35.999 54.4165C26.104 54.4165 18.0822 46.3954 18.082 36.5005C18.082 26.6054 26.1039 18.5835 35.999 18.5835ZM34.332 34.8335C33.4116 34.8335 32.665 35.58 32.665 36.5005C32.6652 37.4208 33.4116 38.1665 34.332 38.1665V44.8335C34.332 45.754 35.0785 46.5005 35.999 46.5005C36.9193 46.5003 37.665 45.7539 37.665 44.8335V38.1011C37.6652 37.7681 37.6659 37.3717 37.6201 37.0308C37.5648 36.6191 37.4167 36.0492 36.9336 35.5659C36.4504 35.0827 35.8805 34.9348 35.4688 34.8794C35.1277 34.8335 34.7306 34.8333 34.3975 34.8335C34.3754 34.8335 34.3535 34.8335 34.332 34.8335ZM35.9912 28.1665C35.0749 28.1665 34.332 28.913 34.332 29.8335C34.332 30.754 35.0749 31.5005 35.9912 31.5005H36.0059C36.9222 31.5005 37.665 30.754 37.665 29.8335C37.665 28.913 36.9222 28.1665 36.0059 28.1665H35.9912Z" fill="#F3A41D"/>
</svg>
