<svg width="438" height="279" viewBox="0 0 438 279" fill="none" xmlns="http://www.w3.org/2000/svg">
<path d="M398.533 72.9595L424.546 41.2283L420.432 33.4911L384.743 8.45585L358.704 38.351L360.122 45.2381L398.533 72.9595Z" fill="#5C6CFC"/>
<path d="M398.533 72.9595L424.546 41.2283L420.432 33.4911L384.743 8.45585L358.704 38.351L360.122 45.2381L398.533 72.9595Z" stroke="#5C6CFC" stroke-width="16.3053" stroke-linecap="round" stroke-linejoin="round"/>
<path d="M389.084 46.0713C388.514 46.1941 386.382 46.4042 385.641 46.4983C384.9 46.5924 385.04 47.0528 385.323 47.3188C385.607 47.5849 386.457 48.383 386.826 48.6633C387.195 48.9437 387.759 48.9073 388.085 48.5689C388.412 48.2305 389.169 47.3089 389.508 46.7978C389.846 46.2866 389.654 45.9486 389.084 46.0713Z" fill="#D7D9FE"/>
<path d="M424.485 41.5282L387.249 16.0536L360.858 46.9269L397.545 72.8337L424.485 41.5282Z" fill="#8C87F1"/>
<path d="M424.485 41.5282L387.249 16.0536L360.858 46.9269L397.545 72.8337L424.485 41.5282Z" stroke="#8C87F1" stroke-width="17.1012" stroke-linecap="round" stroke-linejoin="round"/>
<path d="M405.893 29.5171C405.437 29.8867 404.945 30.3046 404.417 30.7706C403.932 31.2302 403.473 31.6537 403.04 32.041C402.555 32.5006 401.992 33.0148 401.352 33.5837C400.73 34.1285 400.099 34.6853 399.459 35.2542C398.861 35.8167 398.26 36.3583 397.655 36.879C396.653 37.7387 395.468 38.723 394.098 39.8318C392.728 40.9406 391.218 42.1137 389.569 43.3511C387.937 44.5643 386.236 45.7454 384.466 46.8943C382.696 48.0432 380.916 49.1294 379.127 50.153C377.355 51.1524 375.641 51.9718 373.985 52.6112L370.664 47.2816C372.339 46.7676 374.051 46.0768 375.8 45.2092C377.591 44.3352 379.336 43.3719 381.036 42.3195C382.735 41.267 384.344 40.1855 385.864 39.0751C387.407 37.9824 388.808 36.9331 390.065 35.9271C391.322 34.9212 392.374 34.0429 393.222 33.2925C394.762 31.9008 396.186 30.5163 397.493 29.139C398.8 27.7617 399.937 26.3892 400.903 25.0215L405.893 29.5171ZM415.839 42.0432C415.852 43.2392 415.726 44.6489 415.462 46.2724C415.24 47.8894 414.94 49.5611 414.564 51.2874C414.211 53.0315 413.834 54.683 413.432 56.2422C413.054 57.819 412.688 59.1266 412.334 60.1649L406.176 58.9289C406.678 57.7395 407.163 56.3709 407.631 54.823C408.141 53.2687 408.587 51.6493 408.97 49.9648C409.395 48.2738 409.718 46.6198 409.941 45.0028C410.187 43.4034 410.268 41.9792 410.183 40.7302L415.839 42.0432ZM385.773 26.1584C386.388 26.6842 387.009 27.177 387.636 27.6369C388.281 28.0727 388.949 28.5261 389.642 28.9973C390.238 29.3977 390.976 29.8833 391.855 30.4542C392.776 31.0186 393.733 31.6096 394.727 32.2271C395.744 32.8623 396.761 33.4974 397.779 34.1326C398.814 34.7437 399.759 35.3258 400.614 35.879C401.469 36.4322 402.162 36.9033 402.692 37.2925C403.97 38.2299 404.931 39.2694 405.577 40.4108C406.265 41.5459 406.515 42.823 406.326 44.2424C406.162 45.6794 405.443 47.2658 404.17 49.0016C403.126 50.4239 401.922 51.9137 400.557 53.4711C399.216 55.046 397.843 56.4868 396.44 57.7933C395.036 59.0999 393.68 60.0889 392.371 60.7605C390.873 61.5896 389.441 61.8738 388.074 61.6131C386.732 61.37 385.374 60.7444 384 59.7362C383.301 59.2233 382.598 58.6147 381.89 57.9104C381.19 57.248 380.57 56.6266 380.032 56.0461L382.738 50.6891C383.132 51.1634 383.562 51.6642 384.028 52.1916C384.518 52.7366 384.99 53.231 385.443 53.6748C385.92 54.1363 386.316 54.482 386.629 54.7119C387.232 55.1541 387.842 55.4348 388.459 55.5539C389.094 55.6488 389.768 55.5132 390.482 55.1468C391.333 54.6953 392.261 53.9859 393.268 53.0184C394.298 52.0687 395.33 50.9903 396.364 49.7833C397.44 48.57 398.411 47.3726 399.278 46.1914C399.985 45.2271 400.375 44.4186 400.446 43.766C400.516 43.1134 400.34 42.5202 399.915 41.9864C399.533 41.4462 398.956 40.8931 398.185 40.3271C397.654 39.9379 396.872 39.4378 395.837 38.8268C394.843 38.2093 393.772 37.5716 392.623 36.9139C391.491 36.2321 390.411 35.6065 389.383 35.0372C388.378 34.4856 387.605 34.0482 387.063 33.725C386.486 33.45 385.744 33.0721 384.836 32.5912C383.969 32.1039 383.224 31.7051 382.598 31.3947L385.773 26.1584Z" fill="white"/>
<path d="M362.857 197.125L385.197 198.726L411.075 173.145L408.304 148.154L385.212 152.855L363.928 176.787L362.857 197.125Z" fill="#1CB0F6"/>
<path d="M408.128 148.041L394.472 156.865L384.057 158.153L385.183 152.763L408.128 148.041Z" fill="white"/>
<path d="M363.728 176.893L370.257 174.382L384.057 158.155L385.183 152.764L363.728 176.893Z" fill="#70CDF9"/>
<path d="M363.727 176.892L370.256 174.382L369.512 185.748L362.653 197.427L363.727 176.892Z" fill="#21A6E5"/>
<path d="M385.313 198.561L378.809 185.108L369.513 185.749L362.654 197.428L385.313 198.561Z" fill="#1C9FDD"/>
<path d="M385.312 198.561L378.808 185.108L393.744 168.067L411.091 173.216L385.312 198.561Z" fill="#2DBCFF"/>
<path d="M408.308 147.983L394.472 156.865L393.743 168.066L411.091 173.215L408.308 147.983Z" fill="#70CDF9"/>
<path d="M369.257 186.018L378.737 185.245L393.868 167.994L394.628 156.71L384.006 157.945L370.026 174.58L369.257 186.018Z" fill="#1CB0F6"/>
<path d="M114.75 22.1211L108.01 24.2368L107.911 30.4363L110.629 32.3932L117.506 24.04L114.75 22.1211Z" fill="#89D877"/>
<path d="M114.75 22.1211L108.01 24.2368L107.911 30.4363L110.629 32.3932L117.506 24.04L114.75 22.1211Z" stroke="#89D878" stroke-width="3.7394" stroke-linecap="round" stroke-linejoin="round"/>
<path d="M117.653 24.1885L110.864 26.3534L110.765 32.4545L117.457 30.1912L117.653 24.1885Z" fill="#A2ECB2"/>
<path d="M117.653 24.1885L110.864 26.3534L110.765 32.4545L117.457 30.1912L117.653 24.1885Z" stroke="#A2ECB2" stroke-width="3.7394" stroke-linecap="round" stroke-linejoin="round"/>
<path d="M206.317 23.5497C205.923 23.7465 204.791 24.2385 204.447 24.4353C204.103 24.6321 203.857 24.9273 203.709 25.3702C203.561 25.813 203.266 27.3383 203.168 27.9287C203.069 28.5191 203.168 29.0603 203.463 29.4048C203.758 29.7492 204.644 30.3888 205.037 30.7332C205.431 31.0777 205.972 31.0285 206.464 30.8316C206.956 30.6348 208.186 30.0444 208.58 29.7492C208.974 29.454 209.22 29.1096 209.269 28.8143C209.318 28.5191 209.663 26.4526 209.712 26.0098C209.773 25.4631 209.761 24.9765 209.416 24.7305C209.072 24.4845 208.452 23.9716 208.088 23.6481C207.645 23.2544 207.006 23.2052 206.317 23.5497Z" fill="#C2C1EF"/>
<path d="M151.428 72.6503L161.275 72.0079L167.495 63.9583L166.199 60.8359L149.659 69.7294L151.428 72.6503Z" fill="#5EC4EB"/>
<path d="M151.428 72.6503L161.275 72.0079L167.495 63.9583L166.199 60.8359L149.659 69.7294L151.428 72.6503Z" stroke="#5EC4EB" stroke-width="2.36172" stroke-linecap="round" stroke-linejoin="round"/>
<path d="M149.697 69.0941L159.132 68.2228L165.61 60.7354L155.756 61.8774L149.697 69.0941Z" fill="#60D0FD"/>
<path d="M149.697 69.0941L159.132 68.2228L165.61 60.7354L155.756 61.8774L149.697 69.0941Z" stroke="#60D0FD" stroke-width="2.36172" stroke-linecap="round" stroke-linejoin="round"/>
<path d="M160.557 61.2812C157.457 61.6256 155.538 62.7081 154.702 63.8397C154.948 63.8889 155.932 63.8397 155.932 63.8397C155.932 63.8397 157.643 62.291 159.671 62.1668C162.082 62.0192 160.163 63.6429 160.163 63.6429C160.163 63.6429 153.821 64.4736 152.242 66.3983C149.535 69.6948 157.605 67.0379 157.605 67.0379L157.26 67.7267L158.933 67.6775C158.933 67.6775 159.179 66.9887 159.819 66.1522C160.458 65.3158 162.082 63.2985 162.476 62.8065C162.869 62.3144 163.657 60.9368 160.557 61.2812Z" fill="#FDFDFF"/>
<path d="M159.327 64.5781C159.327 64.5781 156.424 64.8241 154.899 65.5622C153.567 66.2069 152.488 67.6779 154.997 67.2351C157.897 66.7234 159.327 64.5781 159.327 64.5781Z" fill="#60CFFB"/>
<path d="M157.118 13.5776L141.09 18.8199L139.082 35.9305L143.856 40.0686L162.847 16.2718L157.118 13.5776Z" fill="#22A782"/>
<path d="M157.118 13.5776L141.09 18.8199L139.082 35.9305L143.856 40.0686L162.847 16.2718L157.118 13.5776Z" stroke="#22A882" stroke-width="5.90431" stroke-linecap="round" stroke-linejoin="round"/>
<path d="M163.223 16.5506L146.304 22.0755L144.341 40.1894L160.393 34.3187L163.223 16.5506Z" fill="#22CE9B"/>
<path d="M163.223 16.5506L146.304 22.0755L144.341 40.1894L160.393 34.3187L163.223 16.5506Z" stroke="#22CE9B" stroke-width="5.90431" stroke-linecap="round" stroke-linejoin="round"/>
<path d="M155.155 22.4355C155.077 22.6278 154.996 22.8411 154.912 23.0755C154.839 23.3009 154.768 23.5106 154.7 23.7044C154.627 23.9299 154.539 24.1854 154.438 24.4709C154.338 24.7458 154.237 25.0261 154.135 25.3116C154.045 25.5881 153.95 25.8586 153.852 26.123C153.688 26.5602 153.49 27.0672 153.256 27.6439C153.023 28.2206 152.758 28.8408 152.463 29.5043C152.17 30.1574 151.851 30.8117 151.509 31.4672C151.166 32.1228 150.811 32.7601 150.445 33.3792C150.08 33.9878 149.706 34.53 149.322 35.0057L147.595 33.871C148.002 33.4317 148.395 32.9305 148.772 32.3673C149.161 31.7951 149.523 31.2023 149.859 30.5889C150.196 29.9755 150.502 29.3679 150.778 28.7659C151.064 28.1656 151.315 27.6026 151.531 27.077C151.747 26.5514 151.922 26.1 152.057 25.7228C152.299 25.0286 152.508 24.3559 152.684 23.7047C152.861 23.0535 152.989 22.432 153.069 21.8401L155.155 22.4355ZM159.83 24.7487C160.007 25.1244 160.175 25.5906 160.334 26.1471C160.504 26.6947 160.66 27.2723 160.802 27.8799C160.953 28.4891 161.084 29.0732 161.194 29.6323C161.313 30.1929 161.398 30.6665 161.446 31.053L159.496 31.6805C159.468 31.2218 159.409 30.7092 159.32 30.1428C159.241 29.5675 159.135 28.9821 159.001 28.3867C158.879 27.7822 158.732 27.2063 158.562 26.6587C158.401 26.1127 158.218 25.6494 158.013 25.2689L159.83 24.7487ZM148.881 24.7004C149.135 24.7647 149.385 24.8178 149.631 24.8594C149.88 24.8906 150.138 24.9233 150.405 24.9576C150.635 24.9856 150.917 25.017 151.253 25.0521C151.6 25.0781 151.961 25.1066 152.336 25.1375C152.72 25.17 153.105 25.2025 153.489 25.235C153.876 25.257 154.232 25.2846 154.558 25.3181C154.884 25.3515 155.151 25.3858 155.36 25.4211C155.864 25.506 156.291 25.6754 156.642 25.9292C157.004 26.1741 157.261 26.5363 157.412 27.0159C157.573 27.497 157.596 28.117 157.481 28.8759C157.387 29.4977 157.256 30.1675 157.089 30.8851C156.932 31.6043 156.746 32.2863 156.531 32.9311C156.317 33.5759 156.07 34.1125 155.791 34.541C155.48 35.0506 155.109 35.3771 154.678 35.5206C154.257 35.6657 153.776 35.6925 153.234 35.6012C152.959 35.5547 152.669 35.4787 152.363 35.3731C152.066 35.2796 151.798 35.1857 151.559 35.0913L151.561 32.9516C151.743 33.0363 151.939 33.1235 152.15 33.2131C152.37 33.3042 152.577 33.3824 152.772 33.4477C152.976 33.5146 153.14 33.5585 153.263 33.5793C153.5 33.6194 153.717 33.6072 153.911 33.5428C154.108 33.4679 154.282 33.3135 154.434 33.0798C154.614 32.7966 154.778 32.419 154.927 31.947C155.086 31.4766 155.227 30.9653 155.349 30.4131C155.483 29.8519 155.589 29.3131 155.667 28.7967C155.731 28.3751 155.726 28.0554 155.652 27.8375C155.578 27.6196 155.441 27.4614 155.242 27.3629C155.053 27.2555 154.807 27.1761 154.503 27.1248C154.294 27.0895 153.997 27.0609 153.611 27.039C153.236 27.0081 152.835 26.9837 152.409 26.9659C151.985 26.9375 151.584 26.9185 151.206 26.9086C150.837 26.9004 150.551 26.89 150.348 26.8775C150.143 26.886 149.874 26.8893 149.543 26.8875C149.224 26.8768 148.951 26.8741 148.727 26.8794L148.881 24.7004Z" fill="white"/>
<path d="M10.0788 250.394L54.198 253.732L62.5688 216.332L57.3841 209.932L4.6084 243.373L10.0788 250.394Z" fill="#6BCCF9"/>
<path d="M10.0788 250.394L54.198 253.732L62.5688 216.332L57.3841 209.932L4.6084 243.373L10.0788 250.394Z" stroke="#6BCCF9" stroke-width="8.64438" stroke-linecap="round" stroke-linejoin="round"/>
<path d="M4.48682 243.189L48.9025 246.65L57.5167 209.972L13.2023 207.934L4.48682 243.189Z" fill="#3DBCF8"/>
<path d="M26.8984 215.493C27.2319 215.627 27.5942 215.751 27.9852 215.865C28.3763 215.979 28.7529 216.081 29.115 216.17C29.3784 216.235 29.7735 216.332 30.3003 216.462C30.8311 216.575 31.4278 216.704 32.0903 216.85C32.7693 217 33.44 217.147 34.1026 217.293C34.7651 217.438 35.3618 217.568 35.8926 217.681C36.4439 217.782 36.8698 217.86 37.1701 217.917C37.6926 217.993 38.106 218.051 38.4105 218.091C38.7189 218.114 38.9533 218.12 39.1136 218.107L40.1777 220.706C39.8533 220.819 39.5207 220.929 39.1798 221.038C38.8389 221.146 38.5022 221.274 38.1697 221.419C37.7837 221.569 37.3137 221.778 36.7596 222.044C36.2095 222.293 35.6204 222.56 34.9924 222.843C34.3808 223.13 33.7794 223.411 33.1883 223.685C32.6137 223.964 32.0903 224.212 31.6183 224.428C32.0541 224.43 32.4654 224.462 32.8521 224.522C33.2429 224.565 33.6358 224.636 34.0309 224.733C35.4302 225.078 36.6144 225.658 37.5836 226.475C38.5693 227.295 39.2677 228.255 39.6788 229.354C40.1103 230.441 40.1782 231.587 39.8825 232.792C39.5624 234.096 38.9435 235.195 38.0257 236.09C37.1079 236.984 35.9053 237.581 34.418 237.88C32.947 238.183 31.2157 238.089 29.2238 237.599C28.0879 237.319 27.0996 236.901 26.2588 236.344C25.4344 235.79 24.8338 235.144 24.4569 234.403C24.0801 233.663 23.9929 232.879 24.1955 232.054C24.3616 231.377 24.6967 230.794 25.2006 230.306C25.7251 229.805 26.3612 229.454 27.1088 229.252C27.8728 229.055 28.6911 229.064 29.5636 229.279C30.6995 229.559 31.5975 230.025 32.2578 230.678C32.9385 231.318 33.3915 232.069 33.6167 232.93C33.8583 233.794 33.8759 234.683 33.6695 235.595L30.6832 235.28C30.8896 234.368 30.8374 233.585 30.5267 232.93C30.2364 232.264 29.7292 231.841 29.0048 231.663C28.5439 231.549 28.1431 231.582 27.8025 231.76C27.4659 231.923 27.2592 232.161 27.1822 232.474C27.0687 232.937 27.208 233.365 27.6001 233.759C27.9921 234.153 28.5585 234.441 29.2993 234.624C30.6986 234.968 31.9079 235.091 32.9272 234.992C33.9506 234.876 34.7698 234.562 35.3847 234.048C36.0201 233.521 36.4452 232.821 36.6599 231.946C36.8422 231.203 36.7718 230.494 36.4486 229.819C36.1419 229.148 35.6402 228.561 34.9435 228.057C34.2468 227.553 33.4128 227.181 32.4415 226.942C31.4868 226.707 30.5839 226.616 29.733 226.669C28.8861 226.705 28.054 226.859 27.2368 227.131C26.44 227.39 25.6272 227.75 24.7983 228.211C23.9899 228.66 23.1633 229.183 22.3184 229.78L20.6427 226.899C21.1763 226.645 21.7777 226.364 22.4468 226.056C23.1199 225.732 23.8053 225.393 24.5031 225.039C25.2172 224.69 25.8821 224.364 26.4978 224.06C27.134 223.744 27.6696 223.482 28.1047 223.274C28.5193 223.078 29.0036 222.848 29.5577 222.581C30.1119 222.315 30.6845 222.045 31.2756 221.77C31.8707 221.479 32.4351 221.206 32.9687 220.953C33.5063 220.682 33.9557 220.452 34.3169 220.261C34.07 220.2 33.7469 220.129 33.3478 220.048C32.9487 219.967 32.5084 219.876 32.0269 219.775C31.5619 219.678 31.0887 219.579 30.6073 219.478C30.1423 219.381 29.7 219.299 29.2803 219.23C28.8812 219.15 28.5479 219.085 28.2805 219.037C27.9472 218.972 27.5954 218.912 27.2252 218.856C26.8549 218.799 26.5155 218.76 26.2071 218.736L26.8984 215.493Z" fill="white"/>
<path d="M4.48682 243.189L48.9025 246.65L57.5167 209.972L13.2023 207.934L4.48682 243.189Z" stroke="#3DBCF8" stroke-width="8.64438" stroke-linecap="round" stroke-linejoin="round"/>
<path d="M46.4993 147.347C47.2441 150.062 49.1166 156.844 50.2806 160.528C51.4446 164.211 55.0525 167.587 58.3943 169.927C64.7574 174.382 75.3137 172.168 79.7654 162.914C82.6657 156.885 80.8329 150.78 77.4625 146.891C74.3662 143.319 71.2756 141.557 66.9874 141.779C61.0889 142.086 53.0306 142.492 49.9672 142.688C46.9038 142.883 45.7544 144.633 46.4993 147.347Z" fill="url(#paint0_linear_1223_1850)"/>
<path d="M44.7701 161.27C45.9503 162.087 54.8283 167.825 58.3231 169.905C62.9887 172.68 71.4251 165.203 69.4142 158.041C68.4915 154.756 62.8849 148.232 53.2104 152.849C50.6123 154.089 47.2938 155.709 45.8956 156.414C43.1737 157.787 43.5899 160.452 44.7701 161.27Z" fill="url(#paint1_radial_1223_1850)"/>
<path d="M61.2768 153.425C62.2636 154.467 64.8751 157.274 68.0557 159.808C71.9853 162.939 75.341 161.536 77.3105 157.923C79.2782 154.313 77.3399 148.131 71.0081 147.881C67.4978 147.743 65.769 147.705 64.2034 147.732C60.4472 147.797 59.2029 151.233 61.2768 153.425Z" fill="#FFC800"/>
<path d="M194.067 264.375L173.609 243.379L138.992 262.335L138.651 278.436L196.055 279.791L194.067 264.375Z" fill="#FF878D"/>
<path d="M194.067 264.375L173.609 243.379L138.992 262.335L138.651 278.436L196.055 279.791L194.067 264.375Z" stroke="#FF878D" stroke-width="13.5068" stroke-linecap="round" stroke-linejoin="round"/>
<path d="M195.91 282.918L173.548 263.179L139.49 279.86L162.6 299.517L195.91 282.918Z" fill="#D947AC"/>
<path d="M195.91 282.918L173.548 263.179L139.49 279.86L162.6 299.517L195.91 282.918Z" stroke="#D947AC" stroke-width="10.667" stroke-linecap="round" stroke-linejoin="round"/>
<path d="M155.755 274.288L157.272 275.431L160.169 278.071L145.98 284.844L154.822 292.731L155.737 294.168L159.066 292.355L157.741 291.1L168.606 285.701L175.129 291.651L175.943 292.764C175.943 292.764 178.076 292.297 179.36 290.956C179.052 290.423 177.76 289.968 177.76 289.968L171.531 284.23L182.829 278.69L184.266 279.99L187.384 278.408L177.47 269.557L163.054 276.679L160.056 273.715L159.042 272.554L155.755 274.288Z" fill="white"/>
<path d="M164.707 277.908L169.889 282.722L181.163 277.141L176.005 272.367L164.707 277.908Z" fill="#D947AC"/>
<path d="M150.758 284.651L156.145 289.674L166.894 284.26L161.541 279.408L150.758 284.651Z" fill="#D947AC"/>
<path d="M157.506 183.019L190.189 190.745L205.365 165.075L204.858 155.066L154.949 174.732L157.506 183.019Z" fill="#9A75D9"/>
<path d="M157.506 183.019L190.189 190.745L205.365 165.075L204.858 155.066L154.949 174.732L157.506 183.019Z" stroke="#9A75D9" stroke-width="8.10411" stroke-linecap="round" stroke-linejoin="round"/>
<path d="M155.544 172.134L188.443 179.231L203.998 154.685L170.7 148.223L155.544 172.134Z" fill="#C29EFF"/>
<path d="M155.544 172.134L188.443 179.231L203.998 154.685L170.7 148.223L155.544 172.134Z" stroke="#C29EFF" stroke-width="8.10411" stroke-linecap="round" stroke-linejoin="round"/>
<path d="M178.402 158.579C178.946 158.796 179.493 159.009 180.041 159.216C180.608 159.416 181.186 159.606 181.776 159.788C182.981 160.16 184.199 160.485 185.429 160.764C186.659 161.044 187.819 161.245 188.909 161.368L188.012 163.441C186.938 163.247 185.788 163.006 184.562 162.715C183.341 162.414 182.135 162.08 180.943 161.712C180.367 161.534 179.793 161.351 179.221 161.162C178.667 160.966 178.11 160.763 177.548 160.552L178.402 158.579ZM187.082 158.078C186.989 158.225 186.888 158.388 186.781 158.568C186.686 158.752 186.592 158.936 186.497 159.12C186.408 159.293 186.292 159.527 186.149 159.821C186.007 160.116 185.854 160.451 185.692 160.827C185.534 161.191 185.366 161.578 185.189 161.988C184.864 162.739 184.57 163.451 184.309 164.122C184.053 164.783 183.823 165.401 183.618 165.977C183.418 166.542 183.231 167.061 183.056 167.533C182.894 168.01 182.727 168.447 182.555 168.845C182.368 169.276 182.124 169.652 181.822 169.972C181.533 170.297 181.178 170.551 180.757 170.734C180.336 170.918 179.846 171.005 179.286 170.995C178.734 171 178.104 170.894 177.397 170.676C176.035 170.255 175.061 169.692 174.476 168.985C173.891 168.279 173.788 167.488 174.166 166.615C174.41 166.051 174.8 165.614 175.335 165.303C175.876 164.98 176.524 164.804 177.279 164.774C178.039 164.733 178.865 164.85 179.756 165.124C180.686 165.411 181.495 165.755 182.183 166.155C182.87 166.555 183.469 166.99 183.978 167.46C184.487 167.931 184.912 168.406 185.253 168.888C185.612 169.362 185.924 169.809 186.188 170.228L184.078 171.552C183.59 170.724 183.085 169.986 182.565 169.337C182.044 168.687 181.48 168.138 180.873 167.687C180.28 167.241 179.609 166.903 178.863 166.672C178.313 166.503 177.822 166.452 177.392 166.52C176.975 166.591 176.697 166.788 176.558 167.108C176.415 167.44 176.486 167.738 176.773 168.002C177.059 168.266 177.458 168.476 177.969 168.634C178.375 168.759 178.72 168.803 179.004 168.765C179.292 168.716 179.53 168.595 179.717 168.402C179.923 168.202 180.095 167.942 180.234 167.621C180.358 167.334 180.508 166.954 180.682 166.482C180.857 166.009 181.049 165.479 181.259 164.892C181.482 164.309 181.714 163.704 181.956 163.077C182.202 162.439 182.455 161.821 182.713 161.224C182.986 160.594 183.226 160.022 183.433 159.51C183.658 158.99 183.826 158.603 183.936 158.349C183.988 158.227 184.049 158.052 184.119 157.823C184.188 157.593 184.239 157.39 184.272 157.212L187.082 158.078ZM177.414 155.304C177.327 155.402 177.201 155.539 177.036 155.714C176.885 155.892 176.742 156.068 176.608 156.24C176.488 156.415 176.393 156.549 176.323 156.64C176.157 156.852 175.949 157.145 175.698 157.519C175.452 157.882 175.175 158.298 174.868 158.767C174.579 159.229 174.283 159.708 173.979 160.204C173.68 160.688 173.411 161.156 173.171 161.608C172.935 162.05 172.745 162.436 172.602 162.768C172.53 162.934 172.451 163.116 172.365 163.315C172.297 163.507 172.246 163.692 172.214 163.87C172.392 163.699 172.567 163.534 172.74 163.374C172.926 163.219 173.112 163.063 173.299 162.907C173.485 162.752 173.664 162.594 173.837 162.434L174.677 163.633C174.297 164.03 173.902 164.447 173.49 164.884C173.091 165.325 172.717 165.742 172.369 166.136C172.033 166.534 171.762 166.87 171.554 167.144C171.48 167.247 171.396 167.371 171.303 167.518C171.223 167.669 171.161 167.794 171.118 167.893C171.08 167.982 171.034 168.087 170.982 168.208C170.937 168.345 170.898 168.471 170.863 168.585L168.578 168.05C168.622 167.399 168.762 166.596 168.997 165.641C169.237 164.675 169.601 163.628 170.089 162.501C170.358 161.881 170.67 161.245 171.028 160.59C171.39 159.925 171.747 159.29 172.098 158.684C172.463 158.082 172.803 157.535 173.12 157.044C173.441 156.541 173.698 156.138 173.889 155.833C174.029 155.613 174.18 155.365 174.344 155.09C174.513 154.804 174.661 154.53 174.789 154.269L177.414 155.304Z" fill="white"/>
<mask id="mask0_1223_1850" style="mask-type:alpha" maskUnits="userSpaceOnUse" x="244" y="107" width="33" height="35">
<path d="M274.365 109.275L254.859 107.375C254.859 107.375 247.275 121.254 245.459 124.542C243.642 127.83 244.505 133.097 249.057 137.109C254.819 142.186 258.986 141.639 262.08 139.509C265.173 137.379 276.954 128.787 276.954 128.787L274.365 109.275Z" fill="#FFC800"/>
</mask>
<g mask="url(#mask0_1223_1850)">
<path d="M250.362 115.712C251.211 114.244 251.027 114.468 250.007 116.296C248.183 119.568 244.228 126.985 244.228 126.985L244.207 127.066C244.207 127.066 249.14 117.823 250.362 115.712Z" fill="#D49800"/>
<path d="M266.982 132.826C268.091 131.692 267.097 130.308 265.569 130.686C261.489 131.677 243.843 136.329 243.843 136.329L254.513 145.707C254.513 145.707 265.196 134.601 266.982 132.826Z" fill="#D49800"/>
<path d="M259.713 127.369C260.004 126.064 259.093 125.186 257.695 125.649C254.667 126.65 239.924 130.973 239.924 130.973L254.86 147.76C254.86 147.76 259.291 129.26 259.713 127.369Z" fill="#D49800"/>
<path d="M253.162 120.357C253.581 118.81 252.215 117.803 251.218 119.06C249.019 121.849 240.342 132.975 240.342 132.975L247.776 142.649C247.776 142.649 252.763 121.865 253.162 120.357Z" fill="#D49800"/>
<path d="M248.432 118.991C249.394 115.112 239.236 129.459 239.236 129.459L256.55 147.7C256.55 147.7 271.407 133.778 267.543 135.714C256.437 141.281 245.825 129.493 248.432 118.991Z" fill="#D49800"/>
</g>
<mask id="mask1_1223_1850" style="mask-type:alpha" maskUnits="userSpaceOnUse" x="245" y="107" width="32" height="33">
<path d="M274.365 109.275L254.859 107.375C254.859 107.375 247.174 121.315 245.459 124.542C247.689 121.808 253.179 120.516 259.196 126.463C264.844 132.045 264.051 136.781 262.08 139.509C265.023 137.497 276.954 128.787 276.954 128.787L274.365 109.275Z" fill="#FFC800"/>
</mask>
<g mask="url(#mask1_1223_1850)">
<path d="M270.984 133.188C272.367 132.207 272.287 132.241 270.98 133.182C266.757 136.225 254.458 144.981 254.458 144.981L254.396 145.023C254.396 145.023 268.634 134.856 270.984 133.188Z" fill="#FFC800"/>
<path d="M256.785 114.856C256.856 113.164 255.341 112.454 254.062 113.937C251.598 116.685 242.663 126.603 242.663 126.603L256.088 130.208C256.088 130.208 256.664 116.825 256.785 114.856Z" fill="#FFC800"/>
<path d="M267.716 119.961C268.08 118.314 267.221 117.558 265.575 118.168C261.85 119.492 242.692 126.472 242.692 126.472L262.269 142.209C262.269 142.209 267.096 122.759 267.716 119.961Z" fill="#FFC800"/>
<path d="M272.439 129.904C273.504 128.687 272.849 127.434 271.265 127.721C267.276 128.443 250.487 130.786 250.487 130.786L258.006 145.256C258.006 145.256 270.629 131.971 272.439 129.904Z" fill="#FFC800"/>
</g>
<defs>
<linearGradient id="paint0_linear_1223_1850" x1="50.8548" y1="141.457" x2="59.7747" y2="152.745" gradientUnits="userSpaceOnUse">
<stop stop-color="#FFC600"/>
<stop offset="0.5" stop-color="#F69B0A"/>
<stop offset="1" stop-color="#ED7014"/>
</linearGradient>
<radialGradient id="paint1_radial_1223_1850" cx="0" cy="0" r="1" gradientUnits="userSpaceOnUse" gradientTransform="translate(47.05 156.154) rotate(-54.0063) scale(13.336)">
<stop stop-color="#FDC700"/>
<stop offset="0.5" stop-color="#F59C0A"/>
<stop offset="1" stop-color="#ED7014"/>
</radialGradient>
</defs>
</svg>
