<svg width="329" height="203" viewBox="0 0 329 203" fill="none" xmlns="http://www.w3.org/2000/svg">
<path d="M314.663 39.7188L316.441 43.5293C318.229 47.3604 321.309 50.44 325.14 52.228L328.95 54.0063L325.14 55.7847C321.309 57.5727 318.229 60.6523 316.441 64.4834L314.663 68.2939L312.884 64.4834C311.096 60.6523 308.017 57.5727 304.186 55.7847L300.375 54.0063L304.186 52.228C308.017 50.44 311.096 47.3604 312.884 43.5293L314.663 39.7188Z" fill="#FBD323"/>
<path d="M10.7382 49.7938L12.1551 51.2154C15.1397 54.2099 19.0831 56.0583 23.294 56.4364L25.2931 56.616L23.8715 58.0329C20.877 61.0175 19.0287 64.9609 18.6505 69.1718L18.4709 71.171L17.054 69.7493C14.0694 66.7548 10.126 64.9065 5.9151 64.5283L3.91595 64.3488L5.3376 62.9318C8.33208 59.9472 10.1804 56.0038 10.5586 51.7929L10.7382 49.7938Z" fill="#FBD323"/>
<path d="M264.725 178.185L265.127 180.152C265.974 184.294 268.252 188.006 271.561 190.637L273.133 191.886L271.166 192.288C267.024 193.135 263.312 195.413 260.681 198.722L259.432 200.293L259.03 198.327C258.183 194.185 255.905 190.473 252.596 187.842L251.024 186.593L252.991 186.191C257.133 185.344 260.845 183.066 263.476 179.757L264.725 178.185Z" fill="#FBD323"/>
<path d="M87.6718 154.209C88.2198 156.888 89.6935 159.29 91.8347 160.992C89.1549 161.54 86.7535 163.014 85.0515 165.155C84.5035 162.475 83.0298 160.074 80.8885 158.372C83.5684 157.824 85.9698 156.35 87.6718 154.209Z" fill="#FBD323"/>
<path d="M153.64 115.944C153.34 114.957 153.897 113.913 154.885 113.613L190.388 102.823C191.375 102.523 192.419 103.08 192.719 104.068L215.455 178.881C215.865 180.229 214.692 181.528 213.309 181.259L194.642 177.617C194.034 177.498 193.406 177.689 192.967 178.126L179.482 191.539C178.483 192.533 176.786 192.105 176.376 190.757L153.64 115.944Z" fill="#AB6CFB"/>
<path d="M135.699 105.265C135.976 104.271 137.007 103.69 138.001 103.967L173.742 113.942C174.736 114.22 175.317 115.251 175.04 116.245L154.02 191.558C153.641 192.915 151.954 193.381 150.932 192.41L137.145 179.31C136.696 178.883 136.064 178.706 135.458 178.839L116.879 182.906C115.503 183.208 114.3 181.935 114.679 180.578L135.699 105.265Z" fill="#AB6CFB"/>
<g style="mix-blend-mode:multiply">
<path d="M202.646 136.843C164.573 146.714 139.056 132.577 130.961 124.351L198.496 123.188L202.646 136.843Z" fill="#D9D9D9"/>
</g>
<circle cx="164.5" cy="71.159" r="62.7019" fill="#FBE347"/>
<g filter="url(#filter0_i_603_18206)">
<circle cx="164.5" cy="71.1597" r="49.2691" fill="#FBD323"/>
</g>
<g filter="url(#filter1_d_603_18206)">
<path d="M164.573 41.411C165.054 40.5858 166.246 40.5858 166.726 41.411L176.86 58.809C177.036 59.1112 177.331 59.3256 177.673 59.3996L197.351 63.6608C198.284 63.8629 198.652 64.9966 198.016 65.7087L184.601 80.7224C184.368 80.9833 184.255 81.3301 184.291 81.6781L186.319 101.71C186.415 102.66 185.45 103.36 184.577 102.975L166.152 94.8563C165.832 94.7152 165.468 94.7152 165.147 94.8563L146.723 102.975C145.849 103.36 144.885 102.66 144.981 101.71L147.009 81.6781C147.044 81.3301 146.932 80.9833 146.699 80.7224L133.284 65.7087C132.647 64.9966 133.016 63.8629 133.949 63.6608L153.627 59.3996C153.969 59.3256 154.264 59.1112 154.44 58.809L164.573 41.411Z" fill="#FBE345"/>
</g>
<path d="M167.689 139.625L165.007 152.928L168.145 163.479C169.936 155.715 172.667 140.076 172.667 140.076C172.667 140.076 169.065 139.739 167.689 139.625Z" fill="#925CD6"/>
<rect x="261.785" y="9.0625" width="2.90559" height="8.71667" rx="1.45279" fill="#FBD323"/>
<rect x="261.785" y="21.8477" width="2.90559" height="8.71667" rx="1.45279" fill="#FBD323"/>
<rect x="265.562" y="20.6836" width="2.90559" height="8.71667" rx="1.45279" transform="rotate(-90 265.562 20.6836)" fill="#FBD323"/>
<rect x="252.342" y="20.6836" width="2.90559" height="8.71667" rx="1.45279" transform="rotate(-90 252.342 20.6836)" fill="#FBD323"/>
<rect x="252" y="126.062" width="2.04881" height="6.14638" rx="1.02441" fill="#FBD323"/>
<rect x="252" y="135.078" width="2.04881" height="6.14638" rx="1.02441" fill="#FBD323"/>
<rect x="254.663" y="134.258" width="2.04881" height="6.14638" rx="1.02441" transform="rotate(-90 254.663 134.258)" fill="#FBD323"/>
<rect x="245.342" y="134.258" width="2.04881" height="6.14638" rx="1.02441" transform="rotate(-90 245.342 134.258)" fill="#FBD323"/>
<rect x="67.6744" y="0.0625" width="2.25626" height="6.7687" rx="1.12813" fill="#FBD323"/>
<rect x="67.6744" y="9.98828" width="2.25626" height="6.7687" rx="1.12813" fill="#FBD323"/>
<rect x="70.6073" y="9.08594" width="2.25626" height="6.7687" rx="1.12813" transform="rotate(-90 70.6073 9.08594)" fill="#FBD323"/>
<rect x="60.3417" y="9.08594" width="2.25626" height="6.7687" rx="1.12813" transform="rotate(-90 60.3417 9.08594)" fill="#FBD323"/>
<defs>
<filter id="filter0_i_603_18206" x="115.231" y="21.8906" width="98.5382" height="98.5391" filterUnits="userSpaceOnUse" color-interpolation-filters="sRGB">
<feFlood flood-opacity="0" result="BackgroundImageFix"/>
<feBlend mode="normal" in="SourceGraphic" in2="BackgroundImageFix" result="shape"/>
<feColorMatrix in="SourceAlpha" type="matrix" values="0 0 0 0 0 0 0 0 0 0 0 0 0 0 0 0 0 0 127 0" result="hardAlpha"/>
<feOffset dx="3.11489" dy="3.11489"/>
<feComposite in2="hardAlpha" operator="arithmetic" k2="-1" k3="1"/>
<feColorMatrix type="matrix" values="0 0 0 0 0.964706 0 0 0 0 0.690196 0 0 0 0 0.0235294 0 0 0 1 0"/>
<feBlend mode="normal" in2="shape" result="effect1_innerShadow_603_18206"/>
</filter>
<filter id="filter1_d_603_18206" x="132.966" y="40.793" width="67.8602" height="64.781" filterUnits="userSpaceOnUse" color-interpolation-filters="sRGB">
<feFlood flood-opacity="0" result="BackgroundImageFix"/>
<feColorMatrix in="SourceAlpha" type="matrix" values="0 0 0 0 0 0 0 0 0 0 0 0 0 0 0 0 0 0 127 0" result="hardAlpha"/>
<feOffset dx="2.49191" dy="2.49191"/>
<feComposite in2="hardAlpha" operator="out"/>
<feColorMatrix type="matrix" values="0 0 0 0 0.964706 0 0 0 0 0.690196 0 0 0 0 0.0235294 0 0 0 1 0"/>
<feBlend mode="normal" in2="BackgroundImageFix" result="effect1_dropShadow_603_18206"/>
<feBlend mode="normal" in="SourceGraphic" in2="effect1_dropShadow_603_18206" result="shape"/>
</filter>
</defs>
</svg>
