<svg width="40" height="40" viewBox="0 0 40 40" fill="none" xmlns="http://www.w3.org/2000/svg">
<rect x="1" y="1" width="38" height="38" rx="19" stroke="#CCCCCC" stroke-width="2"/>
<path d="M20.15 24.5V26.6" stroke="#CCCCCC" stroke-width="1.5" stroke-linecap="round" stroke-linejoin="round"/>
<path d="M15.15 30H25.15V29C25.15 27.9 24.25 27 23.15 27H17.15C16.05 27 15.15 27.9 15.15 29V30V30Z" stroke="#CCCCCC" stroke-width="1.5" stroke-miterlimit="10"/>
<path d="M14.15 30H26.15" stroke="#CCCCCC" stroke-width="1.5" stroke-linecap="round" stroke-linejoin="round"/>
<path d="M20 24C16.13 24 13 20.87 13 17V14C13 11.79 14.79 10 17 10H23C25.21 10 27 11.79 27 14V17C27 20.87 23.87 24 20 24Z" stroke="#CCCCCC" stroke-width="1.5" stroke-linecap="round" stroke-linejoin="round"/>
<path d="M13.47 19.6496C12.72 19.4096 12.06 18.9696 11.54 18.4496C10.64 17.4496 10.04 16.2496 10.04 14.8496C10.04 13.4496 11.14 12.3496 12.54 12.3496H13.19C12.99 12.8096 12.89 13.3196 12.89 13.8496V16.8496C12.89 17.8496 13.1 18.7896 13.47 19.6496Z" stroke="#CCCCCC" stroke-width="1.5" stroke-linecap="round" stroke-linejoin="round"/>
<path d="M26.53 19.6496C27.28 19.4096 27.94 18.9696 28.46 18.4496C29.36 17.4496 29.96 16.2496 29.96 14.8496C29.96 13.4496 28.86 12.3496 27.46 12.3496H26.81C27.01 12.8096 27.11 13.3196 27.11 13.8496V16.8496C27.11 17.8496 26.9 18.7896 26.53 19.6496Z" stroke="#CCCCCC" stroke-width="1.5" stroke-linecap="round" stroke-linejoin="round"/>
<mask id="path-8-inside-1_4439_28694" fill="white">
<path d="M20 1.07957C20 0.483339 20.4837 -0.00303847 21.0791 0.029128C24.1237 0.193623 27.0955 1.05248 29.7648 2.54579C32.7486 4.21508 35.2546 6.62143 37.0436 9.53505C38.8326 12.4487 39.8448 15.7723 39.9835 19.1885C40.1223 22.6047 39.3829 25.9994 37.8361 29.0485C36.2892 32.0976 33.9865 34.6992 31.1479 36.6049C28.3093 38.5107 25.0295 39.6569 21.6217 39.9341C18.214 40.2114 14.792 39.6104 11.6827 38.1885C8.90115 36.9166 6.45286 35.0257 4.5219 32.666C4.14431 32.2046 4.25109 31.527 4.73222 31.1749C5.21334 30.8227 5.88637 30.9297 6.26696 31.3886C7.97782 33.4517 10.1348 35.1065 12.5806 36.2249C15.3543 37.4933 18.4068 38.0294 21.4466 37.7821C24.4865 37.5348 27.4122 36.5123 29.9444 34.8123C32.4766 33.1123 34.5307 30.7916 35.9105 28.0716C37.2904 25.3517 37.9499 22.3235 37.8262 19.2761C37.7024 16.2287 36.7995 13.2639 35.2036 10.6648C33.6078 8.06574 31.3723 5.91917 28.7106 4.43009C26.3635 3.11702 23.7542 2.35386 21.0789 2.19178C20.4838 2.15573 20 1.6758 20 1.07957Z"/>
</mask>
<path d="M20 1.07957C20 0.483339 20.4837 -0.00303847 21.0791 0.029128C24.1237 0.193623 27.0955 1.05248 29.7648 2.54579C32.7486 4.21508 35.2546 6.62143 37.0436 9.53505C38.8326 12.4487 39.8448 15.7723 39.9835 19.1885C40.1223 22.6047 39.3829 25.9994 37.8361 29.0485C36.2892 32.0976 33.9865 34.6992 31.1479 36.6049C28.3093 38.5107 25.0295 39.6569 21.6217 39.9341C18.214 40.2114 14.792 39.6104 11.6827 38.1885C8.90115 36.9166 6.45286 35.0257 4.5219 32.666C4.14431 32.2046 4.25109 31.527 4.73222 31.1749C5.21334 30.8227 5.88637 30.9297 6.26696 31.3886C7.97782 33.4517 10.1348 35.1065 12.5806 36.2249C15.3543 37.4933 18.4068 38.0294 21.4466 37.7821C24.4865 37.5348 27.4122 36.5123 29.9444 34.8123C32.4766 33.1123 34.5307 30.7916 35.9105 28.0716C37.2904 25.3517 37.9499 22.3235 37.8262 19.2761C37.7024 16.2287 36.7995 13.2639 35.2036 10.6648C33.6078 8.06574 31.3723 5.91917 28.7106 4.43009C26.3635 3.11702 23.7542 2.35386 21.0789 2.19178C20.4838 2.15573 20 1.6758 20 1.07957Z" stroke="#F37142" stroke-width="4" mask="url(#path-8-inside-1_4439_28694)"/>
</svg>
