<svg width="25" height="24" viewBox="0 0 25 24" fill="none" xmlns="http://www.w3.org/2000/svg">
<path d="M7.5 15C7.5 18.2998 7.5 19.9497 8.52513 20.9749C9.55025 22 11.2002 22 14.5 22C17.7998 22 19.4497 22 20.4749 20.9749C21.5 19.9497 21.5 18.2998 21.5 15C21.5 11.7002 21.5 10.0503 20.4749 9.02513C19.4497 8 17.7998 8 14.5 8C11.2002 8 9.55025 8 8.52513 9.02513C7.5 10.0503 7.5 11.7002 7.5 15Z" stroke="white" stroke-width="1.5" stroke-linecap="round" stroke-linejoin="round"/>
<path d="M10.0799 2L11.4256 3.11013C12.1419 3.70104 12.5 3.99649 12.5 4.36364L11.5 4.36364C7.72876 4.36364 5.84315 4.36364 4.67157 5.53521C3.5 6.70678 3.5 8.5924 3.5 12.3636V13" stroke="white" stroke-width="1.5" stroke-linecap="round" stroke-linejoin="round"/>
</svg>
