<svg width="16" height="17" viewBox="0 0 16 17" fill="none" xmlns="http://www.w3.org/2000/svg">
<path d="M3.85156 3.06097C4.33774 3.10739 4.96706 3.28819 5.73438 3.64203L6.07129 3.80414H6.07227L11.7783 6.65765C12.9712 7.25411 13.3671 7.93758 13.3672 8.44769C13.3672 8.92594 13.0196 9.55698 11.9932 10.1254L11.7783 10.2377L6.07227 13.0912C5.14861 13.5531 4.40467 13.7814 3.84863 13.8344C3.29001 13.8877 3.00302 13.7595 2.86133 13.6176C2.71965 13.4756 2.59184 13.1885 2.64551 12.6303C2.69897 12.0747 2.92811 11.3322 3.38965 10.4106L3.96973 9.25726L3.97266 9.2514C4.18966 8.80836 4.2165 8.30283 4.05371 7.84418L3.97266 7.65082L3.96973 7.64594L3.39062 6.48578H3.38965C2.9279 5.56387 2.69946 4.82069 2.64648 4.26508C2.59339 3.70737 2.72112 3.42001 2.86328 3.27777C3.00552 3.13553 3.29342 3.00775 3.85156 3.06097Z" fill="white" stroke="white" stroke-width="1.2"/>
<path opacity="0.5" d="M9.89346 8.94775H6.29346C6.02012 8.94775 5.79346 8.72109 5.79346 8.44775C5.79346 8.17442 6.02012 7.94775 6.29346 7.94775H9.89346C10.1668 7.94775 10.3935 8.17442 10.3935 8.44775C10.3935 8.72109 10.1668 8.94775 9.89346 8.94775Z" fill="#FBD3C4"/>
</svg>
