<svg width="56" height="38" viewBox="0 0 56 38" fill="none" xmlns="http://www.w3.org/2000/svg">
<g id="Frame 1000007356">
<rect id="Rectangle 34624302" x="4.41797" y="0.580078" width="47.2827" height="36.8402" rx="4" fill="#F7C268"/>
<path id="Rectangle 34624303" d="M4.35485 12.6005C4.41088 18.6671 4.41779 28.0963 4.41661 33.4157C4.41612 35.627 6.20817 37.4204 8.41952 37.4204H47.6965C49.9056 37.4204 51.6965 35.6295 51.6965 33.4204V4.58008C51.6965 2.37094 49.9056 0.580078 47.6965 0.580078H8.35103C6.16657 0.580078 4.3861 2.33259 4.35153 4.51678L4.29692 7.96738H46.0093" stroke="#DD951A" stroke-linecap="round" stroke-linejoin="round"/>
<path id="Line 1" d="M23.2383 14.3149H38.0723" stroke="#FEF8EE" stroke-linecap="round"/>
<path id="Line 3" d="M23.2383 23.9097H38.0723" stroke="#FEF8EE" stroke-linecap="round"/>
<path id="Line 5" d="M23.2383 33.4443H38.0723" stroke="#FEF8EE" stroke-linecap="round"/>
<path id="Line 2" d="M23.2383 17.6738H30.0635" stroke="#FEF8EE" stroke-linecap="round"/>
<path id="Line 4" d="M23.2383 27.2686H30.0635" stroke="#FEF8EE" stroke-linecap="round"/>
<path id="Vector 5" d="M14.2812 14.3158L16.4157 16.4508L19.6468 12.958" stroke="#FEF8EE" stroke-linecap="round" stroke-linejoin="round"/>
<circle id="Ellipse 11" cx="16.0915" cy="24.3078" r="2.5837" stroke="#FEF8EE"/>
<path id="Ellipse 12" d="M18.6752 33.7507C18.6752 32.3238 17.5185 31.167 16.0915 31.167C14.6646 31.167 13.5078 32.3238 13.5078 33.7507" stroke="#FEF8EE" stroke-linecap="round" stroke-linejoin="round"/>
</g>
</svg>
