<svg width="33" height="32" viewBox="0 0 33 32" fill="none" xmlns="http://www.w3.org/2000/svg">
<path d="M3.16699 13.3335V18.6668C3.16699 21.3335 4.50033 22.6668 7.16699 22.6668H9.07366C9.56699 22.6668 10.0603 22.8135 10.487 23.0668L14.3803 25.5068C17.7403 27.6135 20.5003 26.0801 20.5003 22.1201V9.88013C20.5003 5.90679 17.7403 4.38679 14.3803 6.49346L10.487 8.93346C10.0603 9.18679 9.56699 9.33346 9.07366 9.33346H7.16699C4.50033 9.33346 3.16699 10.6668 3.16699 13.3335Z" stroke="white" stroke-width="2.66667"/>
<path d="M24.5 10.6667C26.8733 13.8267 26.8733 18.1734 24.5 21.3334" stroke="white" stroke-width="2.66667" stroke-linecap="round" stroke-linejoin="round"/>
<path d="M26.9404 7.33325C30.7938 12.4666 30.7938 19.5333 26.9404 24.6666" stroke="white" stroke-width="2.66667" stroke-linecap="round" stroke-linejoin="round"/>
</svg>
