<svg width="24" height="24" viewBox="0 0 24 24" fill="none" xmlns="http://www.w3.org/2000/svg">
<path d="M14.1087 3.34171C14.3495 3.47317 14.4993 3.72564 14.4993 4V20C14.4993 20.2744 14.3495 20.5268 14.1087 20.6583C13.8679 20.7898 13.5745 20.7792 13.3437 20.6309L6.52971 16.25H1.75C1.33579 16.25 1 15.9142 1 15.5V8.5C1 8.08579 1.33579 7.75 1.75 7.75H6.52971L13.3437 3.36914C13.5745 3.22076 13.8679 3.21024 14.1087 3.34171Z" fill="white"/>
<path fill-rule="evenodd" clip-rule="evenodd" d="M17.8788 12.0001L16.0859 10.2072L17.5002 8.79297L19.293 10.5859L21.0859 8.79297L22.5002 10.2072L20.7073 12.0001L22.5002 13.793L21.0859 15.2072L19.293 13.4143L17.5002 15.2072L16.0859 13.793L17.8788 12.0001Z" fill="white"/>
</svg>
