<svg width="48" height="49" viewBox="0 0 48 49" fill="none" xmlns="http://www.w3.org/2000/svg">
<rect x="1" y="1.5" width="46" height="46" rx="23" fill="#F0F9FF"/>
<rect x="1" y="1.5" width="46" height="46" rx="23" stroke="#0BA5EC" stroke-width="2"/>
<path d="M14 22.5V26.5C14 28.5 15 29.5 17 29.5H18.43C18.8 29.5 19.17 29.61 19.49 29.8L22.41 31.63C24.93 33.21 27 32.06 27 29.09V19.91C27 16.93 24.93 15.79 22.41 17.37L19.49 19.2C19.17 19.39 18.8 19.5 18.43 19.5H17C15 19.5 14 20.5 14 22.5Z" stroke="#0BA5EC" stroke-width="2"/>
<path d="M30 20.5C31.78 22.87 31.78 26.13 30 28.5" stroke="#0BA5EC" stroke-width="2" stroke-linecap="round" stroke-linejoin="round"/>
<path d="M31.8281 18C34.7181 21.85 34.7181 27.15 31.8281 31" stroke="#0BA5EC" stroke-width="2" stroke-linecap="round" stroke-linejoin="round"/>
</svg>
