<svg width="32" height="32" viewBox="0 0 32 32" fill="none" xmlns="http://www.w3.org/2000/svg">
<path d="M2.66669 13.3334V18.6667C2.66669 21.3334 4.00002 22.6667 6.66669 22.6667H8.57335C9.06669 22.6667 9.56002 22.8134 9.98669 23.0667L13.88 25.5067C17.24 27.6134 20 26.08 20 22.12V9.88003C20 5.9067 17.24 4.3867 13.88 6.49337L9.98669 8.93337C9.56002 9.1867 9.06669 9.33337 8.57335 9.33337H6.66669C4.00002 9.33337 2.66669 10.6667 2.66669 13.3334Z" stroke="white" stroke-width="2.66667"/>
<path d="M24 10.6667C26.3733 13.8267 26.3733 18.1733 24 21.3333" stroke="white" stroke-width="2.66667" stroke-linecap="round" stroke-linejoin="round"/>
<path d="M26.4401 7.33334C30.2935 12.4667 30.2935 19.5333 26.4401 24.6667" stroke="white" stroke-width="2.66667" stroke-linecap="round" stroke-linejoin="round"/>
</svg>
