<svg width="40" height="41" viewBox="0 0 40 41" fill="none" xmlns="http://www.w3.org/2000/svg">
<rect y="0.447754" width="40" height="40" rx="20" fill="#F9F5FF"/>
<path d="M28 29.4478V27.4478C28 26.3869 27.5786 25.3695 26.8284 24.6193C26.0783 23.8692 25.0609 23.4478 24 23.4478H16C14.9391 23.4478 13.9217 23.8692 13.1716 24.6193C12.4214 25.3695 12 26.3869 12 27.4478V29.4478M24 15.4478C24 17.6569 22.2091 19.4478 20 19.4478C17.7909 19.4478 16 17.6569 16 15.4478C16 13.2386 17.7909 11.4478 20 11.4478C22.2091 11.4478 24 13.2386 24 15.4478Z" stroke="#676767" stroke-width="2" stroke-linecap="round" stroke-linejoin="round"/>
</svg>
