<svg width="24" height="25" viewBox="0 0 24 25" fill="none" xmlns="http://www.w3.org/2000/svg">
<path d="M14.17 3.44775H5C3.9 3.44775 3 4.34775 3 5.44775V19.4478C3 20.5478 3.9 21.4478 5 21.4478H19C20.1 21.4478 21 20.5478 21 19.4478V10.2778C21 9.74775 20.79 9.23775 20.41 8.86775L15.58 4.03775C15.21 3.65775 14.7 3.44775 14.17 3.44775ZM8 15.4478H16C16.55 15.4478 17 15.8978 17 16.4478C17 16.9978 16.55 17.4478 16 17.4478H8C7.45 17.4478 7 16.9978 7 16.4478C7 15.8978 7.45 15.4478 8 15.4478ZM8 11.4478H16C16.55 11.4478 17 11.8978 17 12.4478C17 12.9978 16.55 13.4478 16 13.4478H8C7.45 13.4478 7 12.9978 7 12.4478C7 11.8978 7.45 11.4478 8 11.4478ZM8 7.44775H13C13.55 7.44775 14 7.89775 14 8.44775C14 8.99775 13.55 9.44775 13 9.44775H8C7.45 9.44775 7 8.99775 7 8.44775C7 7.89775 7.45 7.44775 8 7.44775Z" fill="#21C16B"/>
</svg>
