<svg width="24" height="22" viewBox="0 0 24 22" fill="none" xmlns="http://www.w3.org/2000/svg">
<rect x="2" width="20" height="22" rx="4" fill="#F37142" fill-opacity="0.4"/>
<path d="M17.9977 8.68205C17.9977 8.69909 17.8629 10.5784 17.6237 12.4369C17.1422 16.1576 16.6796 16.8011 15.8264 16.8416C15.6381 16.8502 15.3964 16.8523 15.1314 16.8523C14.1317 16.8523 12.802 16.8035 12.7325 16.8011C12.2836 16.7841 11.9349 16.4367 11.9535 16.0255C11.972 15.6142 12.3556 15.2945 12.7999 15.3116C12.8182 15.3116 14.4504 15.371 15.4059 15.3604C15.7383 14.5442 16.1056 11.8741 16.3146 9.37867H12.4649C11.9651 12.1684 10.7213 15.6611 7.64574 17.2295C7.52043 17.2934 7.3856 17.323 7.25077 17.323C6.96483 17.323 6.68818 17.1845 6.53917 16.9394C6.32088 16.5793 6.46245 16.1254 6.85533 15.9251C9.28002 14.6893 10.3447 11.8082 10.8097 9.37888H6.81349C6.36249 9.37888 5.99983 9.04453 5.99983 8.63303C5.99983 8.22175 6.36249 7.88718 6.81349 7.88718H11.0352C11.1933 6.48712 11.1654 5.4749 11.1654 5.44719C11.1514 5.03591 11.5025 4.69069 11.9511 4.6779C12.3975 4.66938 12.7764 4.9869 12.7904 5.39818C12.795 5.51752 12.8229 6.50843 12.6764 7.88718H17.1864C17.4121 7.88718 17.626 7.97242 17.7818 8.12372C17.935 8.27289 18.014 8.47534 17.9977 8.68205Z" fill="#F37142"/>
</svg>
